<mxfile host="app.diagrams.net" agent="Mozilla/5.0 (Windows NT 10.0; Win64; x64) AppleWebKit/537.36 (KHTML, like Gecko) Chrome/129.0.0.0 Safari/537.36" version="24.7.6">
  <diagram name="Page-1" id="IK7TpuL9sT91GHibO-ma">
    <mxGraphModel dx="1434" dy="772" grid="1" gridSize="10" guides="1" tooltips="1" connect="1" arrows="1" fold="1" page="1" pageScale="1" pageWidth="827" pageHeight="1169" math="0" shadow="0">
      <root>
        <mxCell id="0" />
        <mxCell id="1" parent="0" />
        <mxCell id="GSt7BdVdMXuXN4_01nC7-3" value="" style="image;aspect=fixed;perimeter=ellipsePerimeter;html=1;align=center;shadow=0;dashed=0;fontColor=#4277BB;labelBackgroundColor=default;fontSize=12;spacingTop=3;image=img/lib/ibm/users/sensor.svg;sketch=1;hachureGap=4;jiggle=2;curveFitting=1;fontFamily=Architects Daughter;fontSource=https%3A%2F%2Ffonts.googleapis.com%2Fcss%3Ffamily%3DArchitects%2BDaughter;rotation=30;" vertex="1" parent="1">
          <mxGeometry x="460" y="350" width="60" height="60" as="geometry" />
        </mxCell>
        <mxCell id="GSt7BdVdMXuXN4_01nC7-4" value="" style="image;aspect=fixed;perimeter=ellipsePerimeter;html=1;align=center;shadow=0;dashed=0;fontColor=#4277BB;labelBackgroundColor=default;fontSize=12;spacingTop=3;image=img/lib/ibm/users/sensor.svg;sketch=1;hachureGap=4;jiggle=2;curveFitting=1;fontFamily=Architects Daughter;fontSource=https%3A%2F%2Ffonts.googleapis.com%2Fcss%3Ffamily%3DArchitects%2BDaughter;rotation=-15;" vertex="1" parent="1">
          <mxGeometry x="220" y="350" width="60" height="60" as="geometry" />
        </mxCell>
        <mxCell id="GSt7BdVdMXuXN4_01nC7-5" value="" style="verticalLabelPosition=bottom;aspect=fixed;html=1;verticalAlign=top;fillColor=strokeColor;align=center;outlineConnect=0;shape=mxgraph.fluid_power.x11410;points=[[0.387,0,0],[0.387,1,0]];sketch=1;hachureGap=4;jiggle=2;curveFitting=1;fontFamily=Architects Daughter;fontSource=https%3A%2F%2Ffonts.googleapis.com%2Fcss%3Ffamily%3DArchitects%2BDaughter;rotation=90;" vertex="1" parent="1">
          <mxGeometry x="320" y="380" width="105.9" height="92.9" as="geometry" />
        </mxCell>
        <mxCell id="GSt7BdVdMXuXN4_01nC7-7" value="" style="image;points=[];aspect=fixed;html=1;align=center;shadow=0;dashed=0;image=img/lib/allied_telesis/security/Surveillance_Camera_Ceiling.svg;sketch=1;hachureGap=4;jiggle=2;curveFitting=1;fontFamily=Architects Daughter;fontSource=https%3A%2F%2Ffonts.googleapis.com%2Fcss%3Ffamily%3DArchitects%2BDaughter;rotation=-180;" vertex="1" parent="1">
          <mxGeometry x="354.35" y="350" width="37.2" height="35.4" as="geometry" />
        </mxCell>
        <mxCell id="GSt7BdVdMXuXN4_01nC7-10" value="" style="strokeColor=#666666;html=1;labelPosition=right;align=left;spacingLeft=15;shadow=0;dashed=0;outlineConnect=0;shape=mxgraph.rackGeneral.horCableDuct;sketch=1;hachureGap=4;jiggle=2;curveFitting=1;fontFamily=Architects Daughter;fontSource=https%3A%2F%2Ffonts.googleapis.com%2Fcss%3Ffamily%3DArchitects%2BDaughter;rotation=75;" vertex="1" parent="1">
          <mxGeometry x="194.35" y="472.9" width="160" height="15" as="geometry" />
        </mxCell>
        <mxCell id="GSt7BdVdMXuXN4_01nC7-11" value="" style="strokeColor=#666666;html=1;labelPosition=right;align=left;spacingLeft=15;shadow=0;dashed=0;outlineConnect=0;shape=mxgraph.rackGeneral.horCableDuct;sketch=1;hachureGap=4;jiggle=2;curveFitting=1;fontFamily=Architects Daughter;fontSource=https%3A%2F%2Ffonts.googleapis.com%2Fcss%3Ffamily%3DArchitects%2BDaughter;rotation=-75;" vertex="1" parent="1">
          <mxGeometry x="380" y="470" width="160" height="15" as="geometry" />
        </mxCell>
        <mxCell id="GSt7BdVdMXuXN4_01nC7-12" value="" style="strokeColor=#666666;html=1;labelPosition=right;align=left;spacingLeft=15;shadow=0;dashed=0;outlineConnect=0;shape=mxgraph.rackGeneral.horCableDuct;sketch=1;hachureGap=4;jiggle=2;curveFitting=1;fontFamily=Architects Daughter;fontSource=https%3A%2F%2Ffonts.googleapis.com%2Fcss%3Ffamily%3DArchitects%2BDaughter;rotation=-90;" vertex="1" parent="1">
          <mxGeometry x="331.48" y="511.48" width="82.95" height="15" as="geometry" />
        </mxCell>
        <mxCell id="GSt7BdVdMXuXN4_01nC7-13" value="" style="dashed=0;outlineConnect=0;html=1;align=center;labelPosition=center;verticalLabelPosition=bottom;verticalAlign=top;shape=mxgraph.weblogos.arduino;fillColor=#36868D;strokeColor=none;sketch=1;hachureGap=4;jiggle=2;curveFitting=1;fontFamily=Architects Daughter;fontSource=https%3A%2F%2Ffonts.googleapis.com%2Fcss%3Ffamily%3DArchitects%2BDaughter;" vertex="1" parent="1">
          <mxGeometry x="280" y="560" width="172.95" height="68" as="geometry" />
        </mxCell>
        <mxCell id="GSt7BdVdMXuXN4_01nC7-16" value="" style="html=1;verticalLabelPosition=bottom;align=center;labelBackgroundColor=#ffffff;verticalAlign=top;strokeWidth=2;strokeColor=#0080F0;shadow=0;dashed=0;shape=mxgraph.ios7.icons.bluetooth;pointerEvents=1;sketch=1;hachureGap=4;jiggle=2;curveFitting=1;fontFamily=Architects Daughter;fontSource=https%3A%2F%2Ffonts.googleapis.com%2Fcss%3Ffamily%3DArchitects%2BDaughter;" vertex="1" parent="1">
          <mxGeometry x="570" y="579.6" width="15" height="28.799999999999997" as="geometry" />
        </mxCell>
        <mxCell id="GSt7BdVdMXuXN4_01nC7-17" value="" style="dashed=0;outlineConnect=0;html=1;align=center;labelPosition=center;verticalLabelPosition=bottom;verticalAlign=top;shape=mxgraph.weblogos.arduino;fillColor=#36868D;strokeColor=none;sketch=1;hachureGap=4;jiggle=2;curveFitting=1;fontFamily=Architects Daughter;fontSource=https%3A%2F%2Ffonts.googleapis.com%2Fcss%3Ffamily%3DArchitects%2BDaughter;" vertex="1" parent="1">
          <mxGeometry x="287.04999999999995" y="740" width="172.95" height="68" as="geometry" />
        </mxCell>
        <mxCell id="GSt7BdVdMXuXN4_01nC7-18" value="" style="shape=image;html=1;verticalAlign=top;verticalLabelPosition=bottom;labelBackgroundColor=#ffffff;imageAspect=0;aspect=fixed;image=https://cdn1.iconfinder.com/data/icons/fruit-136/64/Fruit_iconfree_Filled_Outline_raspberry-healthy-organic-food-fruit_icon-128.png;sketch=1;hachureGap=4;jiggle=2;curveFitting=1;fontFamily=Architects Daughter;fontSource=https%3A%2F%2Ffonts.googleapis.com%2Fcss%3Ffamily%3DArchitects%2BDaughter;" vertex="1" parent="1">
          <mxGeometry x="670" y="521" width="128" height="128" as="geometry" />
        </mxCell>
        <mxCell id="GSt7BdVdMXuXN4_01nC7-20" value="" style="endArrow=classic;html=1;rounded=0;sketch=1;hachureGap=4;jiggle=2;curveFitting=1;fontFamily=Architects Daughter;fontSource=https%3A%2F%2Ffonts.googleapis.com%2Fcss%3Ffamily%3DArchitects%2BDaughter;strokeWidth=3;" edge="1" parent="1">
          <mxGeometry width="50" height="50" relative="1" as="geometry">
            <mxPoint x="450" y="595" as="sourcePoint" />
            <mxPoint x="560" y="593" as="targetPoint" />
          </mxGeometry>
        </mxCell>
        <mxCell id="GSt7BdVdMXuXN4_01nC7-21" value="" style="endArrow=classic;html=1;rounded=0;sketch=1;hachureGap=4;jiggle=2;curveFitting=1;fontFamily=Architects Daughter;fontSource=https%3A%2F%2Ffonts.googleapis.com%2Fcss%3Ffamily%3DArchitects%2BDaughter;strokeWidth=3;" edge="1" parent="1">
          <mxGeometry width="50" height="50" relative="1" as="geometry">
            <mxPoint x="600" y="593.5" as="sourcePoint" />
            <mxPoint x="680" y="593.5" as="targetPoint" />
          </mxGeometry>
        </mxCell>
        <mxCell id="GSt7BdVdMXuXN4_01nC7-22" value="" style="endArrow=classic;html=1;rounded=0;sketch=1;hachureGap=4;jiggle=2;curveFitting=1;fontFamily=Architects Daughter;fontSource=https%3A%2F%2Ffonts.googleapis.com%2Fcss%3Ffamily%3DArchitects%2BDaughter;strokeWidth=3;exitX=0.5;exitY=1;exitDx=0;exitDy=0;" edge="1" parent="1">
          <mxGeometry width="50" height="50" relative="1" as="geometry">
            <mxPoint x="736" y="649" as="sourcePoint" />
            <mxPoint x="736" y="720" as="targetPoint" />
          </mxGeometry>
        </mxCell>
        <mxCell id="GSt7BdVdMXuXN4_01nC7-24" value="" style="html=1;verticalLabelPosition=bottom;align=center;labelBackgroundColor=#ffffff;verticalAlign=top;strokeWidth=2;strokeColor=#0080F0;shadow=0;dashed=0;shape=mxgraph.ios7.icons.lightbulb;sketch=1;hachureGap=4;jiggle=2;curveFitting=1;fontFamily=Architects Daughter;fontSource=https%3A%2F%2Ffonts.googleapis.com%2Fcss%3Ffamily%3DArchitects%2BDaughter;" vertex="1" parent="1">
          <mxGeometry x="354.35" y="670" width="50.8" height="60.7" as="geometry" />
        </mxCell>
        <mxCell id="GSt7BdVdMXuXN4_01nC7-25" value="" style="shape=image;verticalLabelPosition=bottom;labelBackgroundColor=default;verticalAlign=top;aspect=fixed;imageAspect=0;image=data:image/png,iVBORw0KGgoAAAANSUhEUgAAAgMAAAGCCAYAAAB938C3AAAAAXNSR0IArs4c6QAAAARnQU1BAACxjwv8YQUAAAAJcEhZcwAAFxEAABcRAcom8z8AAK6fSURBVHhe7Z0HgBVF1rb/b3HZdVfXtLooJkyIAQXFBIpZchYDoqJiXHNas5hzFhQwJ1TMWUQFERRBgmSQnGEIM4SZAW795zld1dNzuSjhzjAznBfeqeq+3VXVXdXnnMr/z2AwGAwGg8FgMBgMBoPBYDAYDAaDwWAwGAwGg8FgMBgMBoPBYDAYDAaDwWAwGAwGg8FgMBgMBoPBYDAYDAaDwWAwGAwGg8FgMBgMBoPBYDAYDAaDwWAwGAwGg8FgMBgMBoPBYDAYDAaDwWAwGAwGg8FgMBgMBoPBYDAYDAaDwWAwGAwGg8FgMBgMBoPBYDAYDAaDwWAwGAwGg8FgMBgMBoPBYDAYDAaDwWAwGAwGg8FgMBgMBoPBYDAYDAaDwWAwGAwGg8FgMBgMBoPBYDAYDAaDwWAwGAwGg8FgMBgMBoPBYDAYDAaDwWAwGAwGg8FgMBgMBoPBYDAYDAaDwWAwGAwGg8FgMBgMBoPBYDAYDAaDwWAwGAwGg8FgMBgMBoPBYDAYDAaDwWAwGAwGg8FgMBgMBoPBYDAYDAaDwWAwGAwGg8FgMBgMBoPBYDAYDAaDwWAwGAwGg8FgMBgMBoPBYDAYDAaDwWAwGAwGg8FgMBgMBoPBYDAYDAaDwWAwGAwGg8FgMBgMBoPBYDAYDAaDwWAwGAwGg8FgMBgMBoPBYDAYDAaDwWAwGAwGg8FgMBgMBoPBYCi3+IuwkvCvwsrCzYX/9NxC+C/hVglunXYMtxRy/T+Ef/MkPMI2GAwGg8GwkfF/wqDwg7JHwW8n3ElYTVhdWFNYS3i48BhhfeGxwhOEJ3meLGyQOA7kmnrCI4V1hIcKDxTuKdxZuL0QIwLjgjRsJiQ9pM1gMBgMBkOWEJQ+ipaaOQr/P8JdhXsJ9xPWFtYVnihsXKlSpRbC1uJvKzxdeIawnbC98BzPs7177h+Qa7iHe8/8y1/+cqa4pwkJu4WwiRBDAuPiMCGGBwbI7sIdhdsIaVWgNcGMBIPBYDAY1hIozKD4txXuItxHSI38COGJouibidtWlDNKHgWNwk5X7kHh89tZnqrUIYr9zxiuTTCEQ7gwaTgQH7+RJgwGjIVThEcLDxHWEO4m3EGYNBAMBoPBYNjkEZQ/zfw0u1OrRvFT028obCWKGQWbVMRB6eMGBc81tAKUOtOMh2CYBAYjgd/aCBsJ6arAQKAVgVYOxiXQzWBjEQwGg8GwySD081PzR/nTp09/Ps3u1KpR8ChRGJTqWaJwOY/STzKjgk7jGUFhbwgzhLsmEp+mz99LujEIkoYCx1zbXMjYBMYk0AJCywGGkbUaGAwGg6FCIdT+aR6vIqSfn0F51PxR/ijJpKJs5xVorFSFqmi9cs2GctcwM5xX/tFv68K0tIfn4XwwEMIz8/z8hnFAy8HBQgYpMqMBw8nGGxgMBoOhXILaLcoMpXaQkBpwKyHKMNT8UYJxjd8ry6Tiz6Rgg2LN+HtZYHiW9POcC88XnkNczgfjIH4vlSpVOlVcxh0wi4EWFFpSzDAwGAwGQ5kHiopm7qpCRtdjADD6HmUX9/N75acGgDCpHIspz0znyiv9s6YbCMWe3//O+wmtBryvs+WYmRGNhXQnMBCRdRCsK8FgMBgMZQrUWP8t3FdIM3dLYTEDQBgUYkblH47Tz1dgZjIO9Pk9+Z1zYbwB7xI/AxGZ0siUSowuZl5Ya4HBYDAYNgoY/c6CO9RUj2DKnyguFJj2/4u/vTC0AMQKDoWXoP6Wdm5T5JreQ/LdcRy6EnRshZBuFwZfMg4DY4yxGQaDwWAwlDiYI4/i2V9INwB922YAZJGZ3k/yfQo5To4x4Jhpi0xZpLWArhqDwWAwGLIOmqOZF89UQPqvUUAoIgwB/EHJo/yDAcA5PfZuMQVn/HP6dxq7wvA+g6EVuhFCXtBFwzoNtNgwg8NgMBgMhg0G4wGYEcAKgKz+p2MBRAnRVJ1uBKymzIzZpX/X4TgYBZDjuBvBz0ZgqeS9hSzjbOMKDAaDwbDOoCUAI+AoIX3TYU48CicopdgIkGOr/ZcOw/tWIyCcD8fkgRCDLeQXazmw8RIrHjLGw2AwGAyGPwVGAHsCYAQwLVDHAwgxAlBEwQAwxb9xqXkgeRIbZGnng1EQuhAwFNjMyYwCg8FgMKwRDAxkt73QEhCUiA4IDEoGhZM4Tion48ZhsXxIy5tgFHA+aRQcL2QrZhtTYDAYDAYFfcnMDmBBG5bDpRUgNgKEpyWUixkCZZ9qAOCGc3IcuhDwk7ew7Wabbca0RAYa0hpkMBgMhk0UrGTHHHWmpaV3B8RMHKuy8a6xHJC8C/knrhoF4mfjJxYxgnQFMTiUfSNsVUODwWDYhEBNcA8hfcgoiQ5CjACURdwSwG+44dhYfkle+vwMhgEMRgFGILtGsoQ0BqLBYDAYKjjYJpdxAax3T3MxLQIoi2AEBKWBEjEjoAKRfE3LW4w/XAxBjAK6hjAQMRSt68BgMBgqIBgstm+lSpWoAWIEsFZAbASIG09T4zjhN1ZMBsMgNgqEtBBgFLBGwWHC7YQGg8FgqABgDwFmCTBYDKGPsNcuAa8Ikkohk9IwVmymGwW0DoQWowbCfYS2vLHBYDCUYzCfnD0EWDmwgwh7hDzCv9i4AIjfuElS8z9RBjAIIAYjY0lYtOhI4fZCg8FgMJQjhNaAo4UI+niAIMI/KACEf3DLO+U5ivl5rpJiIp4K8e6gfxaeL1lGOI8BSfcBM05oJWB5aoPBYDCUcfxduK9QxwaIUNfWAHG1X1jcWFHiLw9MT/caGGq06pfrY6UW6H+DhPWnTL/XuyGO4E8ex5Rr47QLiz1PGSZp1edJOw4DDBl0eqhwG6HBYDAYyiiYFsbAL4S4tgaIQA9KUQW+nEsK+7LMdIUU3OAvRn9dUOLp4ahxIL9Bmr1RaoEMlkun/hbu82HEYcpvcTzirpYWYYgrZvL+ss5kmsUN7xY3TENkr4NdhZsJDQaDwVBGwGIxbCrEMrMM/EJoI8hRfCrMEewJob6aAigDjNNJGoUopKQbfoftEgzKi2dFkbOUMtv4Mk6C1hHIlss0c8OGCTJADvL7KZ4ch9/C9fxOeE2FLYSEz2I9xMf4i/AMyTRpmj1VuSaYfO4ySUmj5oVn/O7lfChfvAfGo9jgQoPBYCgDoA+XbgGEM60BCGsUTqxAvVtM2JcRhnTFCtP7i1HOxcpfjlH6bYQoZJZPRtmjtFHYjStVqtS0atWqrWvXrn1m3bp1zz7huOMubNu27eUXXNDhqksuufCayy+//MbrbrjhlmuvvfbWa6655rarrrrqjiuuuKoTfnjdddfdIu4tl1xyyXUXXnjBNeecc84VzZs3v/Too48+/9BDDz2rRo0ap2255ZYYBhpfgsFQwEigVSGZ7nTjgN/i5/VMfydlhj69Ie2km3ygrOFnGWtbqMhgMBg2Iv4prC2CGqVynvgR3KE1AEEeFM9qAn4jMpm2oPxj4yU9vXLM86BgUbQoXBRvk6222qrFwQcffEabNm0uuvTSS6/t1OmOO5966okHXuze/fGPP/745QEDBnwyaNCg74b++uvP48aNGzZ16pSR06ZNHTN16tTfJ02ePAX+/vvv0ydOnDgNBj/nJ0+ZMnn69Onj5PrRkyZNGjFq1Kghg3/5pe9PP/305bfffvtujx49Oj/33HMPC+65+uqrb2rXrt2lxxxzzNnVqlWjpQDjhNYEXIwGjBbOh+dKNw7UKIDhvLhlLc+KpSv4xQ1TEGmRYjlj9rkwGAwGQymCBWHqCZPdAqpUvQBfTbFuZAYFoq73ByOA31GS+FH+NPWjSLWpn9p+zZo1T0fx33DD/24TRfxYz549u3333XfvjRkz5icU97x5c6fn5MyfuyAnJ2fJkiVLV65c4UoCy5cvX5Gbm7t4wYIF8+bPnz9rxowZE8ePHz/0559//uqLL7547ZVXXnnizjvv7NShQ4erjjvuuLMxWuQZQssBxDhgTALvYDXDILwXzuP3TL7HjUafZvwhveRVKH8YP7sLmcliMBgMhhJGGB9wshAh3F6EsyqRILChF9plhargQrpCGv0xLjVnlCYKpfnmm2/eQpT/aeedd97lUvu+622piffp8937o0aN/nnOnDnTRBcvFoW/rKCg4E81firCqg2lD26NWLlypVu6dOnyvLy8XDEU5k6aOHHkL7/83Ovjjz9+6cknn7z/6quvvvbEE09sv+2224bxDBgGdHPQ6qHjDsRN5l94Z3Heem70vE2kL6SRbgPKIkZcdaFNPzQYDIYSBIYA+9CjRFhESNcOEKqCwA3+jcigJFRhCFWhhXPCcE3SAGi61157tWnQoMF5t9122800w/ft2/cjmvelpj8vf/nywhUrClNe7xaDKOqUKOKYQXn/AdcFme5flYzPx5kxbatWrXIFhQUrMV6mTZsyftCvg77xxsG97dq1uwiDx7cchC4FxkKg/FGu8Xv052IFHPzC9HdfakykA3/IXwwC/LWEdGEZDAaDIcv4q5BaF7UvDAEURjAEYsWBcN5Y9GlIKq6gJMLvoQuAWnETMQBObdiw4QX333//nV988cVbw4cP7zdjxvTfpYa9THSuV6nFERTyn3CN8MGsFfwta4PV4vVBrAZaM3JycmaPHTt2IAbPyy+//GTHjh2vZPxD5cqV9b34dxQGIcbvFfr3mnzPq+VDaTGZhpA+IeMIMFJZtdAGFhoMBkMWQbPrgUKUKbUvlEFyl8FgFGQU2iXMkAZ1vT9pBODSCkBrRuOtt966+YknntihU6dOt3/22Wdvjhw5sv+cOXOm5OfnF3p9uRq8fv1TRR/gb9vo8MkBmm5/OkZK/i1atGj+hAkThoth8PHTTz99P+Mi9txzT8YUhNYCDAOUbtxakHjHseHlmZ43Jc5EGtRoEZd0sRYBRkF94bZCg8FgMGwgmMddWxj6ZWMBLG5QDhkFdUnTx19MKflzoaZIs7cOAjzwwAPPuPTSS69+8803nx02bNgPs2fPnrJc4PViMaj6LFL+f9pfXxahT5B4hjSuZhisWLHC+RaDwZ9//vmbt912261169Y9p3Llyry/9LEF4T3ru/fU98/vpU3iFzeZ/6SHsSyUV8a2/EdoMw0MBoNhPbGlkHncummMF74q8OV4owt/0oDfE38wAlBcTWj2Zsrdfffd1+n777//cOrUqeOW5OXliqb0KvDPgfL03k0GBfnL8+fOmTPt118Hf/vcc889cuaZZ162/fbb00IQWgpWMwrCMfmCv7RJGpLp8MfMNGA9AhZzYuqhwWAwGNYR9LceJUSg0uwaC/qkv7RJ3MKkMaBp4ZwQI6DZdttt10LQ8fnnuzz666+/9p4/f/7swsLCYiP/qR2j6JP0P20SBoA8Iyj2/J4JSynllixZsnj8+PFDevbs+eKVV155zZ77aBdCmImQNAo2ukEAfTo0fvxCWrToMmBFRzbPshYCg8FgWEtgCNQV0iKAMZAUsBtF2KenwacjCHw1AnbYYYcWLMDTo0eP50ePHj0oLy83z2s1xapVq1LQH6rSD/SnNimg+Hn2TEy+J5Cfv7xw6tQpY7/++su3bhBUr16dcRhh3YLYKAh5lOm4tCjxphsEuHQZsN7CTkIzCAwGg+FPQNdAaBFINwRif2nRxxn7hSEtGAQ6JkCMgJYYAe+99173CRMmDFsm8DosRiaFF+gv2WQh7wBkfDdChb9UZyNMmzZt/Ndff/3uzTfffOM++9QILQUYZJpX4sZlRdzQarAxyo0ZBAaDwbAeyGQIIEQRqqUqzGGIP+knLUJqpc1Yo79169Yd33uv5wsTJ/4+Yvny5Uu8zsoIr9dUwflThiR4LavWzjYqFKNg1qxZkxmLQUvBrrvuquM0hLjkUbFy48+VahmS+NINAroMGEOAQVBVaAaBwWAwpCEYAnQN6GJCQZBuDPr4gxCPlYtQl9c97rjj2jNHfuzYMYPz8vKWeh2VXss1pV8CSL7XgoL8wunTp0/84osvepx77rmXioFGKwEDDVmngDwLeanGAAx5XBr08QWDgPjDrBj2b2AMgcFgMBg8/iE8QpgcIxCEaakZBcQV4k7zI8S1S6BatWpt7rnnrtsYGLh48cIcVtkL8AZAOs0gKCEk3+3y5cuWsV4BUzdPOOEEBpxS+2Y8QTDmYChLpWoU+LiCQUB6KOdh2uEOQoPBYNjk8Tch6wggIBHiG8UQgCFuXE/8LHTUvHLlys0vvPDCq7755puec+fOmbZy5crYCkApAX9oKCHIK85kbEF99zhLly7NGz58eJ977rnnDgw3yTtaCk71+bpRDYJEfLFBUKlSpZPEZdMtg8Fg2GTBXgMHCBGWYfpgEJ6lZggQl48vxBuEN/3PTQ8//PCzunfv/vjEiROH5efnF6hmEqCEgD80bERINsTGGYYa6xQwyJCuA3Z9lHxkfQJVyELyuywYBLSC0UJwrHAbocFgMGxywBDYR8ho8HNFOKYbAsUEaUkxxIUr1DSIS2tAC1oDrrnmmht+/vnnr3NzcxdlmBZohkAZQzJPli9fnj9hwvhfn3322Yf22WefsMSxjiUQJhWzGgjeX6L0cSrFH7ZAxhBmKu0WQoPBYNhkwJ7ve0qNjWbcsLJgEJYbyxDAj4DWqWosH9yjR48uM2bMGJtcMMgbAas1URvKJjDgFi5cOLdPnz4fnH322ZdI3uqMA5/vagTg+rwvNYMgEScGAcYA3QaHCuk2MxgMhk0CTKtixDfTrIop5aTQLCkST3qc4iKYGXDWpGPHjlf369fv09y83EVep0RA73vdjxEA9MBQJpHMn/z85csnTBg3mM2Qqlatqt0/5L0wlIeNZRCEuFmlEP/+Qoxlg8FgqNCgb5RBU3QNMM2qNA2BWNjjChHCwd+MuepdunR5iLEBBQKvRzK1BliLQDnEypUrUwsWLJj1xWefvcaeEZLnjYRtpAy0S5aNNH+JUeIIBoG6QsYPYKhUExoMBkOFxT+FrCUQ9nwvbUMgqfxD3HQL6LoBH3/88SsLcnLmJKcLGioelixZkjtw4MCvL7/88qsk75nvT4tQUM6laRBoHMQrfnWFYZVC29jIYDBUSPxVeJAQIyCsJRAUtCrpEmSIJxgCeixkhHnTiy+++KqBA3/6IjcvN9frC20N8F5DhQANOUWNOYWCiRMn/vbkk0/ey54SUg7otqJMxGUklJdEOco6fZyh/BNXmHJ4orhbC9cXmwkrC9kCHCOcwYks7MW+H4QL8XOO37iGa7mHwb0Gg8GQdeiAQaHOHBCqIeCFYUkKWwRtEOzqT5xvIQK32UMPPXQ3u+IV+CmDNP9jCPBHtYahwiHkLc7cuXOnvPnm651r1DhAB4768pI0CJLlpqSYNAjw04UBDxdmGlDI94TS/peQRYt2Fu4hZHZODSHTdRmMeKTwaGF9IdMXjxOeIMTQCDxeyHnItSz+dYiQMAhrb+EuQloqthViNGDY27gGg8GwzkCQsOUsAwZj4erdIASzTY2H+IKf8xwLm1Wtumvrbt26PT5nzuzJaasIKvyhoYIimceLFi2c17t3r3eaNm16vpQNxhGEXRA3hkEQ4sJoZqbBfkJq8P8R7iUMir6ekBUMwxoKzMzBoOEe0s14nDBtMUm66HD5Lf13jmmZCM9OWITJOAa+X94NxgPTIFkobF/hbsLthRgJtEYYDAZDRtAESc0kzByIBS2CD38JMV246mBFYbM6deq0e//997vNnz9/ttcHhk0cy5YtWzpo0KBeZ511FtMPGUcQVi2MDQJ/XFpllmMUM+MZGHCL0kcxk4agxFHsEMPhbLmec9yjlGMGRmZierzxb3IfDGG0l3OrxePJ77ybUytVqsQYB4yEw4QYCMwWohvi70JrQTAYDNqUSQ0i1EIwBGKBJ0wXShtMwvbhcxz7xUWQNjr55JPP/uabb95euHDhApSANgMwPsAaAzZ5FBQUFI4cObL/ZZddFgYWsjtl0iAo5i8hhjJLPBixKF1VxOI/xxNljNKOy7tQrxdSm49JOELCWxum3x/CDCQe4sRwwPggLcFAwA0GQksxEE4Rl9YLWjIwDujSsJYDg2ETBIOQ9hJhgVBBUCRbAoJbkgxCEqGJIdCwRYsWHfv16/fxEoGX/0XdAmYMGASFhYWpCePHD7nppptukDJDjZcm8rg8eZeynF7eskUNPxEXDEo/Vsz8tpbUcLk//difS8YNw3V/yJAOT461RUF+U4NF/HzzuMTFAE3GJ9C9wdgh9mKwxZUMhk0E9CMiTLV7wAuRIJTSBVBWSNg+fHWJV0jtrlGHDh0u++WXX75dtmzZcoS+twFiqCYwbFLwWa8Ix951U6ZMGXn33XffLmWHWQatpExRGy5WvihzJcSg8PFrfBlYot/SmpiIM5kW3kd6awLX0lIQuhVCy0GbSpUqMfaAwY0MTvy3kBZEg8FQAcGWxKwnQNOmNh2KGwRJECZZI+Emwla/kPMMqmp02SWXXDnit9/65+fnJ5cVLgZ/2rCJIZn3WhASU0qnTJsy/tFHH71niy22YPAcg/QoU1oTDuUslMESYIgnPpchvpKMf01cU5pwY8p50p80ELg2GAdUEGg14DyGATMYaDFgoKSNMTAYKgj4mKsLEQj6wYtwUMEGxR8LkmzRh61Np97POQyBhpdefPEVo0eN+mlFYaGtG2D4U3iDIDYQpk+f/rsYBPdKWUJptfRlLG6mF3+JlGmYHnZJxrW+/IM04haj/IYcCLIAwwD5gGGAgUBXHl0JNYU7ClnzwGAwlGMw7zl0D8TCMrjZpg83CBtc+i7pGmjA9rUjhg/vV+gNgaSQNxj+CFJUYuNx2vRp4++88/ZbpExhELDJkSq2UO6EGcvmpkh5Lxnfhz9fjLxDzgvDWAO6Evh+6ZqhZZFlmW0nR4OhHIKpRGvqHlhNQGwoCdeHnTQEdNYAhsDQoUP7FBQUrESgYwgkoVLeYEiDLx7FwPmpU6eM7tTpjlulbIVBhUmDoMTKeEVh8v2IP/lbMAogv9FKQIsBxKhnsSRaGpmq+H9Cg8FQxkH3ACug8VFj5auC9sdZF5Q+bMINcXAet2GbNm0u+PXXX79NjhEI8PLdjAFDRvjioQjH+oNgypTJo2+//fabKGNCuqEoh7HBG/zGPybvStxixoF/f5zjG4YY9rQU6EwkIV0ILMDEKohmFBgMZRjMHqAZtVS7B8QNtTMERuO6deue3e/Hfh+LIRDvOmgwbAiSBsGkiROHX3HFFddKWaOs68JEvvyFMmkGwVqS9+XfWabfeI9801wTZiNgILB+AQsbsW6BwWAoY2AxEeYQ07SniwsJ1/ihbwglTNwgfFVYeH+TmjVrnv7VV1/0COsIJIW4wbAhkKIU7Vch/8eOHfNLu3btLpUyR5dBWBUwLpOhfBrXjbxDz2LnxE0aBVQ2OGaPBboP2GjJYDCUEbCRCf2o4UPlQy4JYyCEGYSG1sLEbbbjjju2fP/997rn5i5OrixoxoAhK/DFScvTihWFq37++eevTzjhBIzfeHOjZPmkXBrXnbw//w4znU8aBbQUcJ4xBQw0ZLySwWDYiMAyZ8ez8HGWWDOphB0LWu/Hbbn11ls3eeGFbo/m5NheA4aSRTAIli1btuTLL79888ADD0Q5NadchvKZLKfGrDH+7oVhfxOMMeQO4zfY4ZEpibbkscGwEcBAHvrvgrWu3QN8uN7N9FGvL+PwfHy4OnPgvvvuu2PmzJmTvLCOBbbBUBII5WvBggU5b731VpeqVauyIBFrENCnrd0E4up3EMqscYPI+4y7X3i3HAuRN2oUyHkMAxaHOlBo4wkMhlLGNkIG9CQHDQY300e93pQwg5ANLQ8Ig8YdO3a8YuzYsYODkF61Srt2zRgwlArmzJkz9dlnn71/8803p7sgOeVQlRZl1pdX44ZxNbnCew7vW8hUZloJcBlPsKvQljk2GEoBbETEamF8fCU5aFAFqg87fPywyZFHHtn+p59++rKgoECnEGILJGgGgaFEEcrY1ClTxt4goEwKdUBhKLO+/KaXaWMWmHy/4kc2wDDIEMOslpD1CQwGQwkirDRI85wq6eSHmi36sJM1LVwGDLb44P33X8zNzV2kklmAcA7wpwyGEoMUs2iVQiluQ4cO7duoUaPzpWzagMJSJO/a+8O7VlkkpOsAw+AkIa0EfxUaDIYsg1aBQ4S0CMStAv6jzCp9uOFDp0/21MqVKzd64omn7ps/b95ML5RjqHA2GEoJocwtXbpUBxRWr16dwWzNfJmlDJtBUAqUd6zdiBC/J7KJrgNaCWjFtGmIBkOWwahd1g/nQwuCLgi9jB/r+lDCi1sEfNh84I06duz43/Hjx/+q0lgg8ti6BwwbDaHMLViwYH63bt0e9uMHdNtjX26z+l0YM1PetRoBSb8QP62X5AXTEGnRtJ0RDYYsoPJmm212uHxwWN1h9HTGj3NDSdiB/rhpnTp1zvzxx34fL1++LF8lscFQhjB58uQxl1122ZVSVlmhUEe7S9lVYxYmy7exZCjvOZZJ+D2RVxgFdG3uJfyb0GAwbAB2ErYQ0irAR6c1H/FnVdD5sHEJG7cN3QOvvfbaM7m5uQu97DUYyhQYzNq3b9+PMVqlzDaVMhy+DTMISpHynjMZBFReGFzIBkgMLrQdEQ2G9cRmgjrygTEwh1kEJTJWQMIMhkD4oPmQG0qN65pJkyaN9HI3bp41GMoCQnlcvHhxzosvvvi4GK90pbEGAWW4RI0BCTf+ZrLIYMTEirW8MZn28EzC0G1QT8j0aIPBsI5gMyL6Q5OtAqt9gNmgDz/4m++7776n9+/f/3OpeRV6wWtjBAxlDqE8itE64tJLL71ayi7TDYPRvD4GQayMcf+EcdjeXdfvM5m+4M8UTzGmhVHm6NMY3ktIN5UZjAJmG1QR2k6IBsNaghkENK3F6wqED6wkKOEHAdi2UqVKTbt37/5kXl7efC9wzQgwlElQNnHpLvjuu+8+rF27NmWY2QW4sbJeS6oyDsf4E0wPJyhviPHBNbg0iTPD4c/IdayRwD3hfjUK0uJJT0fM8Fv69WWBPl36LOLX9ypEllGxwWDbTWgDCw2GtcB2wrBFMR/Yugi1taaEHQsWf9zozDPPvGzChAnDVNoaDGUcwVDNycmZ07lz5wekDDNojeltlOlYaYcynoHx7+LyPaTfg5/zQdkTdktPxvOwLC9dFLhNxJhuLMRtUrly5Sb/+Mc/lPjDeSjX0uoX7iWcECYkDoyFkB5Nq/frNwt9+jTdwV9WmEhj8t3SXYBBwDMysJBKj8Fg+AMwT5cPJ24VEDcpoLJGCVMFibitttpqqxbM314mUElrMJQj/Pbbbz+deuqpHaUsYxCE70VJOffHlPtiSjX5G64/RvmjlFHUKO6mKPEtttiiRZUqVVqzhXeDBg3Oa9u27aVXXHHFtbfffvttd9555x3333//gw8//PDjDzzwwGNPCbp1e/6Zrl27Pv3EE088yTl+u+++++7v1KnT7bfddtutF1100dVt2rS55OSTT+6wzz77tJVvsOXmm2/eXOLSOH38jIWgRYE0xTIAv7DYc4TzPGO4bmPSpyn5bnExCHie/YU208BgWAO2FEFA3xoDB/WjxvX+jB/culLCShce+BvdIcJp9uyZExGs1LiASlmDoQwjlFOxYZd/9NFHL+6www4oUKgKKFH2k8ozPo/fn6M2Tq011Oyb77nnnm1btmx5wU033XTzM8888/Drr7/+wgcffPBK//79PxsxYsSAiRMnjmDPhAULFsxeuHDh3IULF8wX5ixevDAnLy93EczNXSw/LVggf/S3RYsWzuPanJycmbNmzpwwfvz4IUOHDunzzTffvPf22293f/HFF5+65557Ol1++eXXHHvssedsu+22rfwASVoUwkDJ8P0mnyM8WzEFnLxmYzA9PUJcVi08/a9//evB4rctkQ2GDNhTiFDSnQnDR5RNSrjBCAiGRvOjjjrqrEG//PJNYWFh2HsAx4wCQ5mFFMvVxrNMmzZt7HUCKdO0DqgSwvWMvyV/HJr+aa5vKgq3BYNnzzvvvMulJv9Az57vv/jtt9++P3z48B9nz549OU+0+pIlS5YvXbY0f8WKFYUrV67MyqexatUqJ+GtlG8vf+nSpTBPjItZU6dOHTV48OBvv/76y7fECOlMa0KTJk06bL755q3EWAnGAYZBaDFIKtzYKEj+trEY0iT+ZHpoIeC4tnBzocFg8MBCris8Wz6Udv6DyfhxrS8l7GAIBBdB0uTZZ599aIHUarx8CkaADR40lAuEcioKdWXv3r171qhRg3K9WusAfmEwAKj9tzzssMPOvvnmm2967733XmAWzdixYwdJrX1Wfn7BcgmvQBR1tC/CGkDcGwIfzGrgp4SRsEQMkolimPT98ssv33n++ecf7dChw2W77747FYdgGNCqkW70qBJOUs5nXa6sDUNaxJ9uEPAbBoG1EBgMHmGRId2QKHw0kI8pGyTcBAm7SePGjc8bNmzYD1LZUcH0RwLKYCjroNn+nnvuuYOyLcQooNzjMgaALoDmhx56aPtbb731lk8//fSN4cOH9ZsxY8bvonCXUeMXrlb++SYEYYrtavSX/SnkWsA9f/iNrel3jIOCgoJ8uhkmT57024ABA77s3r374+3bt7+0atWq9MOHwYkYPLHiF78q4kB/PquyZW0Y0iH+ED/pQd7hZwaVGQSGTR7s9IV1rNMJ/ceS8YPaEErYQSDgR3g06tat21O5ubkLEDZeUAWaUWAod8CoRUnWq1ePAbh0F2BgN91zzz1PO//886948803nx8xYkT/ObNnT1kmFsDKlStXU+aUfUHyWyhGf9lGRoqWkBWMQZgyZcrIfv36ffLEE0/cx2BE340QZlagaNMVcTguVWMg0McLgzxSg+Cvf/3rQeLaoELDJo3t5ANuKK72o/Gh4Hp/xg9qXSlh6Yfn/YTdpEWLFh1Hjx49UAScKv6EwDNDwFDuEMrt3Llzp3fq1OlWKeMnMB7m4Ycfvqtfvx8+mTljxri8vLxc+vv1hgzw5V8VfnA3JpJpCGkTrpb+AsGiRYvmThg3blDPnj1fYCGmbbfdFmOAacrahSDfPrOUkkaB+jmHXChN+nQEgwAX2Yef2VSVhQbDJok9hCU2cFDCDEZAcNtWrly56Wuvvfa0CMdFXp4YDBUCLEQ0fPiwH959993nhgwZ0mvhwoWzUZb+ZwUKddUq1atBwcb0l5QJSHqKGerORcnjNL8BPeHB4bJly/IYTNmrV69377zzzlv22msvug2obMRGgTDdEAhGwmryo6RI3D7+4GIQkNZ9hbYwkWGTA1bwEUIGDp4lDB9o1gwCCU/DTLjNGzZseME4qUUgEL0QQdgoVKoYDOUYDP5jZD6DCv2pYvBFHSQNgTJb9pNpS/cH+FMx8vPzlzMTYsCAAZ8+9NBDd+yzzz6MnaClgFkIxYwAf6z+IDdKgSE+4g6yCYMAo6Wa0JYuNmxSYB8C+ve038x/GJk+nPWihBlaA4KLQGj68ssvM1ZgsZcbsVDxhwZDhYEv2sWUPkj8ptCLywHWNa0FBQWFc+fOncQuj7QU7LDDDihbWgpae5mArEARB4Mg6a4mU7JMNQh8XLikB4OAcQ+7Cg2GTQI0hdEkxkdQUvsQ6Eft48Btcdhhh7UfMXJk/9B3KrKlTNeKDIb1AWV6TfCXVGikP2d+fn7BjBkzJn711VdvXnjhhZdXilY61FkXIifi8QS4yA7vL/GWAh9vkHvEGZYuxmDZQWgwVHgwleYYIWMF+ABKYryAfuDix9XNiJ5++umHFi5cOM/LiFho+kODwVCBkP5ts+Q4qye+9eabzzH7QORCWKcgaQTgV4bzJcxkPPh1cyORV8eJu6XQYKjQwOrFOg9rCyQ/wvSPZb1IuJ74W+y0005tf4lWG9SRSGoFCFRKGAyGTQa5ubmLhg8f/sP9999/p+86oLtSWwmE6cq51A0CIZUkWEdoMwwMFRYMjtEuAl/oQ+2djyArH14iLMLFIGh6zTXX3DBr1qwpXh6YMWAwbMJgOWSRB5M/++yz19mHQWQETfOtvAxReQSD358vScbxiIvM0oqScD+h7XRoqJBgoaGjhBgCNImV1HgBPirYatttt23JR5+fn687E5oNYDBsGohM/iL40zGWCkaOGNHvjjvuuJmdE0Ve0HUQWhRxS9MgCNR4hYwfYAaEDSg0VEhsK2SaD8YAH1j8wSU+hvWmD0tdIWE3O/PMMy9jl7QgC/w8a7MIDIYKDv3QE/Cn9bz3aivB9OnTJ/Ts2bPrUUcdxRgmWgmY949MCYaAut6/mtzJEuO4hMEgoYXgFOFWQoOhQoEdCpnml+wi0A9BmP5xrDMlrPiDFZcPukXXrl2fXLJkiS4yJDIgnmqlksBgMGyySNgELi8vd3H//v0/bd++/cUiNxoI426DJIN8KQESNkYAcpFj/LSeIiuPFNoeBoYKA6YUHiosib0IkkZAMDJaHHDAAe3Yhz1tOqFNKTQYNlHw7SfhTytYm2DEiN/633rzrTduvvnmzPlv5mVKMWPAH2eSQ9mgtgrg9/HoWizC6kJbodBQIfAv4UlCCjeFnQKuLgV/Axk+UA1L/LQ+NLnyyiuvmTFj+u/hm48+f2sVMBg2VXgZECN5Dv+KFSvc5MmTx3Tr1u3R3XbbjT57xhGoYhZqrd37S8wg8GEn5RkykxlYVYQGQ7nHzkKm8qilS0EPLgU+G5TwwsfaZsstt2722muvPZOfv3wpH3lA+OgNBoMhQK0BgT908+fPm/X+++9332+//ehuRBGHfvxYdnl/Rlm0gQyGR3AZy8DaCPWF/xAaDOUaNHNRuEty1UE+WNyWxx577Dm/Dh787SpGCBkMBsNaIGkQLF68eOGXX3755iGHHIJM0VULvXxJbyHIulGQFjZyDbnJ+QOE1l1gKLdgSuHhQgo0Vq5avaHgZ4H6gQpx2Qmx2dVXX33j3Dlzpvnv2loEDAbDWiPIi6VLly7p1avXO8cccwwD+VigKPTpq/wSf1DY6TIpK/TxqWEgpFWVKZDWXWAot9iqUqVKjNA9xxfypNW72gewrpSw+GDiLgLmDHfv3v1J+Y6XhA8b4DcYDIY1wYsKlRXe0fUI+vbt++EJJ5yAMo5bCBIyqCSNAQ0bV0hFijQcLdxcaDCUO+wkxgDjBVhIg0Ke7Y+HDyX0sbU88MADzxgwYMCXhYWFK/xHrdAv22AwGNYALyriGUfeYW+DpX369PnAGwSslYJBEGQP8qzEDAJhMAio9Oi0bOHeQoOh3IGCG9YXyPaHo4YA4fo4mrRr1+7yqVOnjvUfcwz9qisY/KNtEJLhaKCGUkd495oJGwgN0LDe8K8xHmvEAS5dBt9999379evXZ3p0GFQYFHWQa9mUbUriETcYHRxTqWIxImZoGQzlBqytzaYbyfECyY8n4wewlgyGACTMtpUrV27yxBNP3Ldw4YI54UMO4LgiwD9OQLyQUgamI9M1EKjfR7FW4CbvTU9TRiSv05vWA8l7NaA/gb+02H3rg/Sw/gj+srWKM1wjTrF8SCMILkg/n84ECFujMqwj/AsM+aMuBsE333zT8/DDD0fmNPEyKMgilUf4vXzKGn246grPEj8GSU2h7V1gKDdgKsyxwrOlAOvOYBTqLDJ8gBgarXfddddTe/Xq9W5+/vKwF0EsJDkur0AYJZAU/HA1+NuKQU6v6XomXairRwn4W1eD/zl5fQj7jwjU74NZJ0S3x+GAZNhrYoD6fVDrBL179bD+iAHq98EUg/4aIVyf6X6Fv0Xv8d4YekHxe5LhaLb6FbgV/jbDWkBel75Dfxi//7y8vMWffPLJqzVq1NDByl4GBVmUjUrOmqiyzpPuChZG+o/QYCjTYIfCvwl3E9KkRstAtj+U8HFomOI2P+qoo84dNWrUL/r1lmMgeJA86hYhCHkVSrhA/atSrrCwUGouy9yixbkuJyfHzZozJzVzdsRZc+amFixYtCo3L2/V8uX5urhKOiSoKHyvQf5IifjTAXGa1gR/jQrWP7t2TeC+BNYmTkXCv85GSLjPu2CN8eqv0e+BMfwlyWeQ3/WS+Hr/e3BdfkGBy81b4ubMm5eaPHW6Gz9h8qrRY8anxk+Y5CZPmebmzJ2XWpybt2rZ8uWplStXclscfsKfTEfs14sN64zw7hYvXrjg7bfffm7HHXdsIXKnhZc/Kt+Cy7lsUsJNtg7gYhAwSws5azCUOdBstYVwd+ERwsZSgIOyDk1o2fhQklYyfh0vcOmll149bdq038OHC/CXJ/hkqy720jt49ZBrEP55oiimTp/pBvw82H36RW/36pvvuceffcF1uv9xd+Nt97urbuzkrrj+TuU1/7vL3XznQ+7+R551nbu96t5692PX67t+buy4iW7Roly3okiZRPGoQcBGLsRYFC/QMwlwjrGaopQchsby/Igcw0JveMilcThJ/9qAawVRajw4X1BQWCxOpRxzPh1yC/evk0Hg70mJJ/bLO5F4CorixfUMz5oJ3MvtgfJ2i6WJPCUvRowaq/nZ7ZUe7r5HnnHX3nyPu+C/N7p251/lTjvncnXPu/QGd81Nd7t7H3raden+unv3w8/d9z/8JAbDJAljsRqGxePUpGM0+uO1f/eG4gjvbv78+TOffvrpeytXrsyUw9Yik+Jp08gkXC+rsk7CF2IMtBayoJvBUGbAWgLsSsge3McLaUKjsGr3gLjBqlUlLv5sGgS4bbbccstmzz333GNp4wXWSfhvbIQ0e1fhf5La/EqXs2CR+23kGPfuB5+5+x99VpXCsQ1Pcwcf1dDtVfMYt0v1I9xOe9Vx/6lWW7l9tVrK/+xxiKuyx6Fuxz0PdbvVONLVOOQEd/hxLdyp7S9zt9/zmHvn/c/cuN8nuXxRcsBHnUxHMQWiZwT4Z8yc7d5+7xP3VJeX3PMvvhGzS/fX3DNdX3FvvPOhGzPud1F2RcovUANbC8i1INyXosb8w48D3Quv9nCdRRkm4+0s8b7w6ttuwMBf5XmWaxoT965zeUjcm5o7b74qahTwcy8Uj/eZ519x78h7mDptRrgP6H2JcFZLD/k6Zdp0995HX7jb7n7ENT/9AnfQEQ3c7vvXjfNy+90Odtspa6n7b3H/s0dtyc9D3G77HeX2q3OSO+qE1mIsXKZhvN7jfTd0+MjUwkW5IT6JSawYiV79csR5w/qBF4g7efLkUdddc801In8wCFitMJZv+HET8ipr9HHgMpiQjYysdcCw0YERsL2wlrChFFAUPwUUIyCp/EMBztbHERsCHIvbap999mn73XffvVdYWBBptHIGFdGRgghQPwp64uQpKQyA6269zzVs1cHtW+t4V0UU+/a7i3LYtZbbQRTGTnvXUWNgd1EO1USRwD0PPFoZjjEEdt7n8Oher1j+U+0Qt2/t492pZ1/mukttdPKUaUSrafJjCWKkp5Pa7Os9PnAHHnaK22H32m6PA+pK/EXcpfrhoqyOdB0v/5+2Qvj7VQnqwTqA+ABx9uj5iat7YmtRlofpMyXj3FWOd9r7MHdSs3buy2++575w/zrFG673FMW62D34WBe3f52TVUmjhImP97rHgfU0L/YXpYwhQjcM9wiKhRHC1QgEUrt074ohdu5F17kDDjtZDbdtdz1I3+WO8mw8y54SNnm490H1Y2L47XFAPX32qvvUUUPv37vVjvJTDL+9a9aX5z/L3dzpYfd9v5+0BYP4iVsbfcwUWG/wDiH+VVIWhw4Z0qd58+bniwwKixKVhhEQWkWpcLUR7iKka9ZgKHXQHRCMAD4CjAAKJiNdKbhaWNMLcRaZbgw0r1279jnDhg3rp19suQU1N9UbqvTGjf9da9htRVHXOPQEVfooHQQ+ijZdSexzsLgHH7NG7iNKZJ+Dji1SKgcd7Xbd90itYW6768Gi1I4WxXSt6/PDT9r0rwkJCUoAjUJqMVSefu4lUUiHuW12PtDtqi0Thymr7n24uv/acX9RWkeJofGW7h/P7YH6yH8C4uNaz9Tvk6a408/5r/v7v/dW5YlxE+KEHP9bFOpWOx3gLr7qZkdt3oej7rogGe93fQe4OvWbur9vt4+8rzrx88Fd9z3CbS3x7SCG1QOPdZb3kh/uB3p/MryV8h5Gjhqr3TkYYtvucpC2AKDck/mZKQ+TJL81z/31lAfNTzFWttvtIAm3pqt7Umv30mvvusV5eZomSQRWXuQ3bDAkrwt69+7ds2bNmsijeKdD5BNyysurrNGHG9xQ+aontH0LDKUK1sXeRsga2azGFYwA3KCgs634MzE2BoQ6XkBw6bhx44bwgSJ8Ebr6tZYThDRDMQRSfaRG1/acy0TRHq41vh33ipr4UdgI/qD4k8pgb5RDrdUZ/y7GwF4HCXGF0f2RcUBNEyWy7c413TGnnOre/eDzuNvAtxBo2hJUBdfr2x/cUSe2VMVMWCE8WL3WcVqD3l4U3aVX3+pmztIenFgpQj3xByAeruMPx19+08cddmwzUXQHRs+XfH7hPgcfJ89W320nBsGxjc5wPw/SIqEgHO/9U/g49XqifrLLS273/Y/Srhaeqyi+Y0WhH6ctLLXrNnHvf/JVuB/E6fb+VYxn+Lp3X9f6rIvcDnvUVtIlEMIiT8ijOPy0vMxE8j0ieRrdt6fkL4bRP/9Tw9Wq29h99NnXmiZNnGG9EPIw3b948eKcl19+8XG/9TG7HQYZpUyTXRtECS+WsT581m9h7MCuQoOhxEETFAMD9xU2FDLPVY2A9AKaZKZzWWLSGNCdxe647bZbZ86cOcl/qGCtBX9ZQEgzf1CaF11xk9uyyn5Syz1YBDsGQFD8XlGkCX+U+54HwqNFsReR473kvCoWr2wIIxgEScOAsDA4thAFgsL99MveDCIMaUuHpnX875PdGR2u0JYBmsyJIw5T4sTIwFBo0PIcN+jX4eFZVZiubQWVeAD+F197WxTgsdpKooowPIt3o3dzrPv37rXdgYef4np++IWGESDBrHW58FFq68LFV94c196Tz4ifZ+T5W7e72I0cM17v4V7SLJDnjFpSGB/w2Zff6jiPbaTWjrKO0uufwZPjKI6otk/4ux9wlBojMeWYbhmMQxR/FA55HOUjrF77WDUiq+xxiLvzvsd1YGVIE9SEGtYJa3p3kydPHnFN0fgBxkxpdwGu92eSYxtECRcZiItBUFf4d6HBUGKoLKRP6jghBVu7A7y/mBGQ9JcwNW5xaZE4dauttmr9yiuvPMMcYP9tljsgYILSGD12gmvSpoPbquoBKuzj2q8K+8iPkqDWvcu+R7idqx+hNVb6miEDzBhsxrgAjAmUWNW962gTMgo7qYCKKSI1OI51jDvAEGl22gXu16EjQvqSUIGIh6mM9zz0tDabM2Yh3RjApRuiVt2G7oNPviScEJ4I1D/XR1wX3gsDB2+56xFtLdl538PVGFAjQKjGjPdznlaO3fev5x59uptbKUo4hKWetQDXhusHD/3NndLibLfdLgfJ+6unzxjHJX7SQ+vHTXc8qFM75T6g78dDw/lp4BDXsNU5bmu6VGocVexdxe9MnmOPmvV0vADdEeTn9uSrGFQYQAwcxOWY8xg9tEro+5eyUE0Mhb3EeKScYAzQhYHRcePtD+gMlJAeSJoMG4bwHlesKEz98ssv35xyyik02zf1Mqo0DALCRiYzzXFHocFQIthaeIgw7C2g6wUIV2sJSD8uYcYfl7gtq1WrdupXX331dmFhYaRpyiEQKkHpMWOgWdvztXuAAWShBkzNn5rpznsfpoPGUAZVxU+/c536zdxxjc9wTdue51qc3tG1OKOjay7K/JTm7V29k9u4mlJLRsHo4DQxHBj8RpjadeCVkCpW8UcK7ggdn3DrXQ+7+QsWZlRw3nWffP6Nq12viSioQ1x1qbXHBoYqy/qqpHaXWuyDTzzvli5bHj8v1IM/gMbgrx03YWKKEfN0AVBbjpUpzxGMAZ9+DJ//yDuihSW9e0IP1gLh+o8+65WqXa+xKmA1pLyRQ7w8L8p4/8NOcm+9+1G4D+i9eDjHWgGXXHWL22bnmvo+0g2B6P0f7XaRPPqPGE+7iLFTu25jbVE587wrdBDmf6+93V1x/R3usmtv0+P2Ha/WPD76lFPd/nVOFKV/mBol3I8RQLjBWDRjoOTAC8XNzc1d/NZbbz233XbbsbsgMjPIxawbAj5cdX08yObDhDazwJBVMECQ1gDWwKYJih0HM64gKL+VphEQGIwB3KYHHXRQu/79+38dPkxBuRN0pDkYA6PGjHPNRaFTu6cJGMWH0keRo3hQevUbnObOueha1+n+J91rb73nevfpr7X4kaPH6VQ+UZzawvDbiDFuwMDB7v2Pv3QPPt7FtTv/SlfziAYaDopib7oQiimkSKnSL04N9tBjmrqvevfVNALSmIAqlRGjx6ZannGh26bqgRpOUHSEhyGD4bG9xNfhkuvd9BmzNBy5T59ZD9YSjKOoe1Ibt3XVmnE6iSedxE8LCOMfMIZ+8d0TIKTZH2ZE8hrGTTz0xHPar79z9cN1fABxh3i0i0Ceu0mb89zQYSO5F+j9nilG83d96S1NE600qxkCPjxmQWDENGh5tuv0wJPus6++dcNHjHYMmuS9zZk7382dl+PmzJnnZoiBM2nKVDdK8ri/5G+Pnh+5u6QsnHnelWKYNXY77XWo5jGG07/FqLzh1vvMGCgFTJ06ddQ1111Hd0HY0CjIqbgCk236sGkdYMzCDkKDISvYUsgsAQalaJeAFLhkQca/MQyAJMPHhVXcuH79+h0GDRr0Mx9jJOvKn7AjvcEYGDl6rCoERq7TzE+zP60CJzc/y115Yyf30mvvaP/7zNlz3GIR8H4qm4azJjA7YenSpW7a9Jk6p/2sC65SY4CZAMVqu54oLBTTDrvXcrd0etjlLFyUSdEp587PSd10xwPahE0XQ1LZYQzQpUE4JzZr54YMH6npkfv0mfXgDyDvxPuce1Nq3vsdeqLbfrfEeAGMAloFEi0D4VlQgoce3UTXBgAhvXqwBoRrAqdOn6G1cFo9eB/Fni28I1HwV//vLh1bIPeAcL9mytjxE92p7S/VcQW8CzW6SKemOXr3TFfEvfnOB9Woy1uSV+zZ/wyUAbpRJk+Z7r7s9b27/Z5H1RCqsuchmsePPNU1XozIUHKQ72yVVEw+r1u3Lkqa7gJV1sisILe8DNtgIv+CK6TrFjK4ezOhwbDeYJBglUqVKh0nBUwHCIpLnzwFLRTkjW0EwGAEBLfZ+eef/9/xv//+Gx8jAlhQrgwBENLNHxauOfvCa3SKXM0jTnEXXHajzl8fKoo0Z8HCVEFBQTFlkwSnkpQ//pdI0eHqtMUJk3SVQpqQ6RJQBYViTShY+p63rnqANlUPHjZCA5IwFN6PowsKvfnOh66GKGoGrDHAL1Z4sbI71NU88pTVxg1APVgDwrXLli13dz/4pKsqtXP6x2meDzV00hwMAaX4ddzAnoeqEfXM8686pvMFrEWccboGDRnuGrRo77bb5WDfNREZGsSHn8F5TPt8+Y2eTm7iXhAbdrzrdz/4VBd6wlhSY4L0JgwB7UYRI+qWOx8u1qWhHp1uGhPEeS/Q83qVB36MiNzcPPfLr8Pcs91e1QWhRowaw8/hXqXeaMgaeMG4CxYsmNulS5eHRDaxFHsb5BayCtnl5VfWDALow8alK/dEoe1oaFhvsHhQdSF9XR2E9D8FI4ACV1YMgUD9oIQ0w7W49dZbb5o5Y0a5nUkAQrr5Q9M0i8U8/9KbunDOzNmziy2xq1cmhPq60gej6xjQB0/fus4EEAUaFCxEcVGjpzb+5rsfqpKR+wHhxCCsgYOGuRObttOuBa21e2MgKD76sxnIdvcDT7klS5Zq/HJrsfSkQwP3cU2cPEX7yGn23m0/P2vBh62j7UWZ6qwLH2+otTO2gr52mtiBf4Y1xpv8TdxUzw8+d7WOaqi1/0iBF4VPLZ/a/klNz3I//TI0md5AXayIkfx0DzAOQNMd3m+tKO2sG0G30IjRuvO2Ii2c9aHmC2WJpZITeRdQ7r6R8gJ5t27EiBEDWrRo0VHkE7MLgrzKqhEAJUzkdCBdusxkYDl4g2GdwWIVdAtQiLAsaRVA8aslK/6sF+ANJGlSQ0XItsUtn3nmmQcWL1yY4z9EFYb6VZZDIKUBNcqCggIVLAHRL0UCP+q+9z/+CcI9jOCP3OhGBr0dcPjJ2pwc1bCLugtQXPRjV5Fa/R2i0FBswEccpwNOnzk7ddk1t2nTvK6FEIwBDae+200UMyPfO1xynZs1Z66Gw33q+QPINWDVTwOHpE5qeqbU0GvqVMnQTYAypdZdu14jHefAdLuo1s64gXqaHhTtbyMjRUtYUA/SEH5DcYLcvDx394NPqVHBmI1iilz8LKZEF86l19yqyzIDuR8UvZcZs1IXXXGzLixUTdIa3gvjNEgnLTMM7LzvkWd1cyIfhiYguGsDuTaJOP40Bqx1uIb1wxLB22+/3XmLLbagghX2LigxeSrhIhOJAxluAwkN64ythKxtzeBAChGFisKqhdb7Mxa+jcg4XeK2ZlrhW2+91SU/LPtWThGEtHcVaedjga43rCeSYXHMQMM27S/RmQlMxdsnzRhAUVEbZyT89JnR4L+kMYCfcygy1uvXNfXTFaevAe+w+yE642HYiFEaTjId6Qi/CTV8xjkcdGRDVb4YF3RF0BLAMsxMw7zu5nvc4cc211o2vwejhhkRR57YyvX+/scQ7p/GG4wBumtYKpgpmrvtWzQWQo0NMUZY1nnPA+u7ri+9od0Bci8olu6x4yemWOqZaYmhJSMKo6j7hPS++No72t0CQhh6sI4g3gRCWoTkU0ryLjrvLzeUICZOnPhbx44drxA5xWDCEpGpEl7oIgitA8hxuidse2PDWoPlhFk7gEGCkEJaVlsDkkwaAy233Xbb1j169Hh15apoLjkor8IuEtoxEoK82PkNNgZEI8TvaHl+fuquB56U2u9RWvtVZSVKSxWW+FHiLGvb9uxLRbH9HpSNpgnF4pWLpokle9kzgAV1ksaALoIjYTL3v3rt49zb732M8gzPpeT+JBK/pdia+YHHurhdpCZeZc86GjbcrUZdHdjH4L2PP+/lGjCHv+oBrjqGAApb4tWBebWOE0PlDV30Jxm2HiRAXJwX6vHPvwx1xzc5Uw0QHfjnDQzi5pmYrXD0yW1c334/6Q3R7cXzZ/hvo13TU8/Xa/fJYAwwxqKGvBM2F8KgABJE/Ox6wlCuEPJt6dKlBR999NELW2+9Na0DrURmhUXasilj43AkTIwBWnbx0+3LirEGwx+CxSmYNthBChH9TNotIG5ZNwRg0hho8Z///KftBx988JbU9/RDBBVBiPIMAf5U1uA1eKwQX3mjp44LoF9ba69e6UWK62jdPAdFO2jIcE0LN3NvGlNTpk935192oyg+phgW7yrAX7X6YW5HMTjueuApEZTLQlh6L/50hN+mTZ/lLrr8Jh2/wPz5YAyg6DFg2LqZEftMtWShJm2Cl/i4hoWQ2PTn+lvujbs5fLhrNEDwrxLn9bejQZHa2pAYT0G4GEl0QZx/6Q1uytTper9aRz7NgHMjR49LtWDa5S4HqUEUvxPv32nvw121/erKM3QvtpV0cKNGCv5kvRgYShAh/ydNmjTiggsuuFxkFSu3IreyLmMlvLh1QFzCp3LHfgWbCw2GjGDGAPtfM6gFQ6A9hccXoPJiCKjR4v3N9ttvvzO+/fbb9/n4PFQY6xdpyAj/jmLF9/Hn37hD6jVW5cbo+9gYEIVF7Zom7mNOaat75vv7Qaz0AOeXLV/mnnimu67Ix0ZK3BuMAboKWEYXxcrWy7PnFo0bCPcnwTmB/jZUa9fn6XgBlDBdBPvUrq+LAFU/mJaGT3QO/S2dHom6O3R6Y1Tzxs8WwKed+183pWh7YXXTQXwodPx5S5a62+99TKflsTNgMAZ4J4xNoEbPLIDHn3khHtzpjYEAPWCxoXMuvtZtIwYVy0OzWVTRO6mv4xpYJIiFhaZOn6nhJF5tbF9E5yPoRYYyjZBPy5YtW/ree++9VKVKFfYsoHUApZ1to0DDkfDSuwpszQFDRmAI7CakkFBYaLJSi7KcMTZchM3r16/fftCgQbrgEFBpKfCHhjVAXhFqRo2B736geb+VrmmAwko3BtjR8MgTWrmve/8Q7gXpGgu4z7/6TlfOw7DQ5nQJQ8OScOjjZyGc+g3a+g2EivrvoQYuICCO+cPxJ1/0doce3VRbBrTLQWrUkO4LVlf88adfuMc91/0NUf4oV/rhiTuKk5kArNLXb8AvGn5SaesJDznkB/WzvgBrMWBw7L7fkcWNgUOO1bhJ06dffqvXgxAufvVIeHPnzU9dd8s9Ok2U8Rc6JsOHo5Tn0LUeatZ3jz39gk4J9PdLcBoef0KC9R15v5XxMo6QR7//PmFou3btQutASbbAEi7h6+6x4u4nZAE5gyFGMARYoaqYISD+kiqY681EmtRNY/wxCZs1aNDgnKFDh/QJHx/AvynAP+76QpUM4fz40yBV0P/etdYajYHDj2vhvvrm+2S8QUGBWGGNGz/JnXrWJTrlLjICvDEgYUIdNyC1+bfe+SAMutN7+aOBC/RYzuBnatxjT3cThVxXB+xpq4CkiRYCBjayoiLTDgGbALEsMoo6LIvMtWwzzJLNL73+7moD/fRGQXSqKN5+Awa6eie1UWMgGDPhefasGY2jaH/B1Y6NmpL3exeon9UH2YYaQ2CnfeTZa7GrorwTbwzs5d/PTvJsBx3RULs8GKjJvWnhanjpcXFsKJsI+cMyxa+99lrnLbfcEvnLzIJQi1c5lpR968sQTghTyBTxY4S2tbGhGNjeMhgCFJ7YEBB3oxsCyXTgF/KhxPS/Jcl1sGXz5s3PTzMGYgFfEeCfaU0ISiJWFmlI/z2dKqwGDPzVHd/4DK3No2TXxRgIx0GJslHPHfc8qqP4oxX7orCCImXt/Z33OUKn0qEouVdvlz8hLAFKmUNdeveKG+7UpnS6H6jxw533PlwNi9vvecwtljgB8/RbnXmRjlkItW5q9CwjzAwHmv2XLF2m1/p4NE4g3vidEPeLYjiwHbKOF5Bae1iymfB23LuODmS8/9HOuhiSv1/D9H4Qhzfg58HumFNOU+OleGuJd+V9Y2AQF8bChVfcpF03TMFkLAxhaCQC/IIQtoafDn+poYxADNDUyJEj+zdq1Oh8kVmNkF/IMfGrLMsSg1wMchNjgO7gfwsNBsVOQroGzhMWaxEIBWhjkPgTDAU4pClJrmf+LGkPc3VZE6GN8JTjjz/+LDEGIi0lqEjCUCV7AihcnDSuBn/7avdngF73kxgDJ4gxwBS6dW0ZSB7jZ1bHux985gfeheb6IkWKscF5BvuxNLK/X5/F+wHGgIY9aux41+asi8W4OFgXRiJtKEyMDQYpdnulB83zXKrLAV/zv7vcv3c5SNcAID64235sWnSIO++S693M2fFYBYUeCPyhBoSCv+Wuh8X4YJMfpknK+/DPwN4EbCDFNMcPPvkqvtfnjSKc81i1YMGiFEs6Y2xF6fIzLTBYgmHgXbpR/i3PVufopu6ya293L7/W0w0dPsotWLhI4wI+XBDKgL4v7y8Gf4thIyMnJ2f2008/fb/ILKYZIr+C4l5NNq4vJSzkJfKdcHVguHBvIS3Dhk0cTB9sIGSwoO4xkCg0QdGWGkO8CTcYAVr757yQa3UKjj/HHgkYM02EtG5g7UKOT8TaFqtb9yWoCPAyPIY/zfkg+GMwaI5BZ2PG/65r/tPc/33fAanv+vbHdT8MGOQGD/nNjRoz3k2YOEUXxlm0aLEqTx+Ehj9k2Ah3IlPodMzA+rUMCOL0setio9YdRPlFCjuuAftWAvrwaYLvL+lN3p8Wlv72xTd93BHHt3Bs0kS6ojQdq9MXjzihpev1Xb/4WVDijz7dVWcPMNNADRGJk3EDbKPMMw76dZiGK5fH6U1AjydOnhqtzCiKWQ0Qn+7ovRytGxOddvaluhGU3lUUVvIZQHRe/smzphiEya6Fe9HS4N9xcYMgej4GJvLumDa5b+0TXLO2F7gbbrvPvf7OR27osFFuTrQHQngOX0aKj7/gfBLRNYaNhcLCwhUDBgz4tEaNGqya2iwh35B/2ZLFGo4P0xYgMsRgQaHjhedKAcEQiFsEIP7SYohP3Fj5QzkXDIDwO35q/Ch9LGgUftOqVau2Ofnkk8/r0KHDVbfeeuttnTt3fvSFF17o+sILL3b99ttvP8jJmR+thlPO4eV2QqCvJtNTixYvdsNGjHbvf/yFe+DRLu7iq25RxcVo+xMan+mOOflUd8wpp+r89+Mane4atTrXtW53kTvr/CscKwTeed8TrtvLb7EjXmrgoKEpjIkf+g90JzU7a727CYCe8LX5efNz3FU33uW218F30cj+ImXHYj1Rc3iPnqw3EBsmQZFqLRc/m+888/wrosyP0XtCTZ8R+CjV08+9XPdY4GZ/r/vw06+k1t5ADQ6u5RmiOA/VbX6Jc9WqldwSkHjf0TN9IwbG4ce20JaS5OwK7Z7Y5whV0nfc+5hbXDTYT6EHAn9YLFzWc+jc9VW3Sw1R9FLzr64tJkUGgbr6jqJtkfc+KJoWyZbE2+58kBomBxx2smsi+cy7ffG1d91Pvwxxs2npSOh6Iia+JPkT4C8zbARMmzZ17HUCZBuyL8g/ZF826MMiTOQrRgddBScJ0QWGTRQMGqkrpKmI6YNJQ0D9pcVknAl//AH4c9T+UfxqAFSrVu3Udu3aXfrggw/e884777zQp0+fD4YMGfL9hAkThs2ePXtKbm7ufGGe/F+yfPnyZfTJRZ9b+ZZ1Xl57Ia4iXP38xq6BX/fu62656yGpdZ+rzdQMqkPpoRiZdredKG1q97hh61rWCGAw3zY7H6BN69Q6WfiHrYlPFgOAHfkuvfpWV6d+M1U+1KKDclpbY0CPEmktKCx0L7z6jttDwmCkfHJVQx03IGmgz5+lfvPylsb3iwd/bAzk5i5x/7v9AR0boOGIkkSJci815+tvvY+Nm7g0hJEaPnK0a9rmPLftLgdHtW6Jj5p92B4YA6qgoGC1dAdyvvsrPeTeY3UTIt5BeB8oaVZR3F+U8tvvfRpvfkQg6kkD54E/dLNmz9H1Dsgz8oL3goGRNAaUpNv/RpwYP2zOxGwK8pr79611vBp/5B0rP/b98WcNP4B4eY9Q/fo3ej5D6YIXj7t06dIlH374YfdKlSpR2TkVOShuXCkKMnF96cMI4WAM0DLAlEamkxs2QbDp0CFCVqIKCwpRUGCpGwLiKr0//MYx/WaszNVAPo7m9erVa3+94N13333u558HfDp27Jhf586dO4N5uoWFhaLvi1YYzAy+t4wyuVxARbWHP8W5VStWrEwNGDhE96M/XBQ2O/Gh3FEmQcFhFLBCXlAkSbJPALX93WocqcoepcocedYO2HqXA7X5nX7sqOk6KKIid22NAXRO0Duc+3nQUHdsw9NUge1F2ghT0odyJj3/3q22bjzEXv0+DDSX3i/QczTXn3ne5aL8avnxApFypJbMZkVPP/+ybsvLTdzHPez6d8mVt7htqtbU90L695E4d9vvKJ1VwLLK83MWaPjck868JZEBwp4BulZCrdAqIK48A7MImp92gRs+YnQIA2jC9cQaEH6fOGmqu1pq9uy+yGqJ5AvGmXZp+HcU56N3+S0YBnvKu8OYYoEo0sJ+D7Re0BJ08ZU3u5df76ndQuF7IV6Bps/jT9NqyC6S73vw4EHf1apVC9nM9sY6hkv8JSGXCRf5T1xsa2xTDDcxsPzkvkIUL1ZhbHX6c5kKTVaZjCfE7/2cox+LbgDt9z/wwAPPvOKKK65+7733nh86dGifGdOnj1+6RKTxH8ALMxSGwh/Lx1a+5Vt4DuBPaa335Td6pk5s0k5r+FtXPdDtss8RqiRQDDAoCq01B9aGx+lgtxq1j9dpdcGFkfKhL/0YVZgYA7QIrK8xAPAljQF2WmRUPC0UuiMiylTiC03j20nNvu5JrV2ffgz3iEbMe5Ctevxtn/56DYZPtKpg1E1AmOxD8HXvPnqDQIsC8bJY0AOPd9E9CzB+gpLFWGIHQ/b4/3XYCC5NPkdgCkXa8owLo/ECBxSlm3BQ3P/e/WB3/a33ikERt0jEadcTCfjTq2HK1Bmpex5+xtWq11jzVVdWlLB5tpCnOs6CfJC4A3kHpIffuY5piRg5DI7EQIz2P6jvWp55kevywutughgePspEPhU9qz9lKGEk3/WMGdMn3nrrrbeI/AuzCorJzA2lDwtiDCBvMQhs3MAmCGYOtBQyTiAuGOLGSrkkSXwhTpg4plCeKtSBgI0bNz7v8ccfv/fHH3/8aOrUqWNE/0edr2ngI0LIwwSCMCt20t9SLuEfodhzzZ2Xo03aTG/bssp+Rc3ktY6LFGpQ1jQny3n8KF1qjQyeo48cJcEe+vhpameKHYofJYfSICwMBoyHvWt5hYMC8kpo3YwBRZx+ViN8pusramxEUwyj5nDSTrikh5r+az3i9QYC9H7+vvBqD71P+/+9IbDHgfXUKGrd7mIG8EWXRuUj+iOGxPsff+lqHnGKPjf3hTh3kPfBDo0ffPJlpjTr/V98/Z2rc0wzrXlH78AbA/KOaVEhPWKgucIVK0IY6q4JhClQA8n7waoFCxelmD547sXX6VLQUZfOwZpmxlmQXvJFDQOfftKRJOfpNiFtPCcrPDLr4l877q/53L7jVZJnfXQKZ3r8UE8aSgW8dNzly5ct/+CDD15ADnqZiNzU1gHhBstoH0aQvYTJ0sTsQbOl0LCJ4F9CHTAoDIUidkuaxOPjCoUQP0YA3QE6C6Bhw4YdnnvuuYeHDh36/bx582atWFG4XgIpfFgVATyLQBWRx6pFixanHnr8OVUK/6qyvypAVdheMaki8DXEagdIjVcUCCvcoVAYaMd6/TuLUYABATECqojy3UEMAxSrKh6pRVLD3mEPxhEc7pjnjsIJXPeWgdXgmNXAfcQZ9d2HtEctEjvuGa0TsGhRbjJMLRPswR+WA6aWjyGA0tNdFCX9V1x/p5s9d95qcXM8ZNiI1EnN2uvYiRAfXQV0q7Cr4lOdX4pXC/TQeBl70qXb63JPfb9lsTckfNqpxZ/QtJ37pWhGQgw9kQH6I3FlNmhTv0+cknrlrfe1FaVO/eb6fAxcpJbPFMxdtQuH+KPnD8ZBKAf6W8g3SSMtBrSCkMdbVKnhjjqhlRhc77O+AtGBELfG75NpKGGEdy3FwA0cOPArllH3chEZmTVjIFDCgmHcAN2x7Edj2ARQWXiosL2QwhUKVWkYAhqHjzNYpME4oJWicZ06dc589tln7/3111+/y8mZH0lwDz4S4A83Ocijq1AW6DGD215+/V1tzqdPmb37qf0lm4z3ph9bjmkBQOFRC2S54DM7XOGuuelu3Qjowce6OAwKyOI4ne5/wt1w2/3ar8wKgcc3Ol1qzw10TAEj5DE89joo6ttfH2MgQH/xv/0+cbI7vcN/5f6akbEhYUXKq74qLIyR0875rxs/YWLyXg2TNQjOvehaNWB2pwld7kXRqUIXQ4I9AZKLFsHwIqdOn5HqcMn1ulMgg+8iw6m+NvNjgFx5fScxQBbFaZdb9Fbm8l/9v7t1bEFottf0yr3VDqinxsCl19zmZs+Z94fvYDXIJXp1BE1rMbqUTvv8otf37qEnntfWgiOPb6mGHnstMDYAg4pNmsJsj9AaEMpEktG7Ok6MvCPFINjP1arbyL357ke6h4LEB0LcCp9KQylh6tSpo6699trrRTYmFyDK5riBIJNDywCurTewCYBxAnsJqYFrxocCIf6SNgaSccR+cWn+alK1atXWnTp1uvXHH3/8bN68ebNpwg0QGZQUiAp/XqEXVXD4R5XXEr0CzvX/ebA7vvHp2tSL4KcmiIAvqv2hAGgNOESVQ7O257tHnurmen33oy6NO3/+AnYE1IVz8kVZwqXLlunKe6zUN2PWbB1gxjr9NKc//+Kb7vLr7xCF0XC9ZxME6NlEnubl5enWwyhwDJaiZ4mUGDVglF7YMwBwH+AcAxDpo2eAXNQyUF9rvIcc3VSXHg7XR+9Po9Q/i3Jz3b0PPy1K/VC3m++iIE7eJ+MPGrfuwG6Cer/eS3VN8NuocTp1b/vdaqvyV2Xr3wGrH3KOaZnMliAeQRyxBrYW4FpBuG+1+5cvX+4mTZnmvv62r3azXHTFTe64hqeLcXhCPPCTAZWaV2JQ7c2zaZlINwrEIKh9nHYdbLnTfro3A1tME5dHnBYftaGEwcvGzc3NXfTiiy8+JTKSNWCYVRAUd1bktQ9HDQwhFUR4kHAzoaECg+Um2QCDcQJBIZeGIZAsvBqfZwthk9NOO+3Cjz/++KWZM2dOTM4ESMi/GNH5CHrRJgJ5XH0ZAj1mDQEWl6E2XHXvOm7fxPgAramrcmKzn9paS2ZVO1anQzltCFgkqPnpF+jMgj2oSXtlvb7GAApWj+W5PvuytzvoiAY6IC9+Fg2bpvhoeeE33v7QFa4ormDfeOfDqC+d2QiSBgwBWhe23ukAVdjDR4xJXF+sPK1auXJF6r2PPnf7y/0YIjxDeCYUKTVl+tJDmuWP+tlkid+YPsjgSu6h6Z00061y9MmnxgslAY3Nw59aK/hbQJT/kd//WgTKxYxZc9RYeum1d9zVN3ZyDVue4w48MhoPQZpYGhkDTg0Xn2cwlJl9ax+r3UC0LmBYsGBRCJu4M0ZsyDp4zwLfBbZ8Ra9evd7eeuutab5vgQwVN2vGQKAPEz9dBUcK/y40VFCQuYcLwxQSbRUQt6QNgdjo4Bi/kP4pFghqfd99990xfPjwn5YK9EsQ8CHwNYiPo+jkJg7ehwDlqcfsHkgfL83b1P7DDncQxYTARwmgqO5+8EldfjfABwTFv0prvFAQ+5OUP3Em0KJwavtL1RgIS/6ujzEA9BcS4DFqzDjX8vQLVRnpc6BcCVtcaq1VxPDBqMlZuNDfmkrRd0/XBq0JdIVwLc3ipI2uBaYH0qzuLycdSh4rYODgYe74Rmfq+AIMKJ4DYhzQ0tD1pTfjgYuks6CgwD357AtS+6+rrQDBCMAAowbOqoMXXHaDmzx1ul6vkQjwry98EHEgeOP88fA/KZgS+evQ39xbPT9xV990tzu2YVsdMEpX0a41jtC0at5peSlKP4YjLSoHHnay6/nh58QT4s6Yh4aSQXjXK1asSIl87Ov3KmCKYZCpWR3ojVwWF4MgLD60jdBQAUH/z55C7R4g030hKA1DQAutuJBCR7dAoyOOOKLdu+++233mzJmTtPQL+AAEsdAJriFCeDcopsee7q4b+ejoeakJq0AXxQlRhvR589tFV96s8+n9/VFTdxSOeryjx4k4MlHzghUN6W6gCT1bxgB/OGbU/K13P6LT+nSUfMIY2PPAaPe/tudc5iZMjHb/A2zQc96lN+iiP+wrgEKjBYF5/xgIjzz5vHaFaEyJZyHGyE2lfp801Z3d8RrHYkzMzY8W+KmvMxuYyXDjbQ+4hYsXc6m+I97nRVfcrAYRYxJ0vIA+fxQvBsJTXV7SgY0aQSJeTXQWkAgzZjELx4NrGd/Qf8Ag1+n+J91hxzXXvGNtBMoJ2yGHcsMzMPiUbgXGH1x+3R1uQfGFmmLDzVB6mDFjxsRbbrnlZpGbjZGlyFbxo7iDHN9gSlihkkbLADO5qggNFRBbC08WZppGmLFwZIFqACRc4mXdgCatW7fu2Ldv34/y8vIW+/JeDEgd76p005ObOPy7UGHM6nEd//s/EdiMBThSa3MI8kgpi2EgygmBf+jRTdzHn/cK9ycNAYU/n1HAJ34HcdxDfxvlGrY6V8I/WPvFs2QMaNhMwXvr3Y90QBtTHYvVXCUOlO+RJ7TUJZEDWLDohCZn6GqK1MpJA9fz/Acf1ch9/Fn8/CBOhx75uBeKEcKgyWjAYTRegbh5PmrJDKIcO/53DQdgEJ3c/CytZYeukqhF4hhtjWDFRpYpBlE0mZ9/QxDCw01AnyeNcbzsT/H5V9+6lmdeqMaTDnyUZ02+Y44ZL0GLE8tODxk2Uu8lHIEZA6UIXjjuokWL5rGsushO1lw5zcvSrMpuCS8YA4wlQ06zjb2hgoHVpA6UDA+DQ2LLMlkYssxMhkDLzTffvNn//ve/m4YNG/pjQUG+dl4jYCIhUyRn/LmsCs/yjqL35Nwvg4e6k5q303XokwMHgzBHidHkffaF17hJk6fq/TSn+zDW+b36+zRutjBmHwOmJ4bR6unGAJsFfd27qJ+de/mjJ9Kgv/qwAWvon9DkTFWq+kxeSRHPzlLjZkYDuw/SVA9YB+DgIxuKoVBLr9Faes2j3dZVa4rCPlveVfGpfXogwI9xhH/FipU6gr7GoSfoDIJgDNBFgFFxlBggffv9FO5znzK24chTdEOjvRmYR/q0FeNobb1gpsbY8cVnPQA9UYKQKNTcEw9jMIhS843nDK0GXNd/4BDXpM15+s6YihpaYMJ75hjD65B6jdV4CGGH+w2lg/C+l0it6YMPPnhR5Cczrlp7eVqSxgDH1YWGCgZ2I2QdfzKZDM9q81IGZjIEWmy99dZNH3vssU5TpkweFdYMoLALVGBxbFgzku/py2/6uDr1m+pKcqE2HIQ5igylyXiB/93xoFuwINrONtkqoCfWEv6eOG4W2jlM4t5ul6gmnskYoPbe67sfwv0gY7z6S1r4c+bOd1fe0EkHETLPPygqnkvn1Ver5a675T63YOFCfaZHn+4uxs/R0cJEvnbOFEFG0nf8741uytTpGpcmIJEOPZD79UfBDz8O1FH0KPPQn46r6xaI++pb73EPA7pSDz/5vL5j+uD13euz+y6CvQ/TWRG5UgsnDkF4vnV67xuKEKeHpiE8Lxs+dX/1bZ2SSjmhJSm0DOizyDEtBwxKfem1d/U9a6CGUgUZh1tYULDi5wEDPj344IO1UuVlakkZA1QYGVNWU2jLElcgsKxkHSGZGxeg4JYAk4ZAOG4uhkCzp5566oGZM2dE1SXDOiMIdPzvf8Juew2l9szgwag2p4LcK03mvjNv/J6Hno53y0Og+zDWSbD7e+K4X3mjp6txyPHRqnuiOIoZA6JEaJFgOt8nX3wT7gd/Gq+/ZhXz25mSR+tGtPJgpKhQ9AzYo8Xg1PaXuCnTprtFi3PdxVfd7KowLdDP9acfXPdV2Ptw9+DjXTKOF/DxeWMgStbYcRN1Z0OMAX0uNSzq6zgEBibeds+jbsnSpSkGYl4gRgZLJEer/0XPz3tn+mPNw09xH/muCeDf+zq982zCP6YmwT++/hk0ZJg7pUV77Q7Q2RDe6ArGAPtaMOXw2a6vxTNQuFc9hlIB+eS9Uj7HDmzZsuVFIk/Z0ph9CpCt2TYIqCjassQVFFWFTN8Li0mUVotAOG6+ww47tOjSpcsjTBv05VqFigmWdUPynb334Rfu4CMbaL99pCzXbAxQQwXro5RCnJBj1h+4udNDUis+TGvGKA2UR4ibvn6a1ZnmR7N7iO6P4tYfBN6v8fTp95M76gT2GWBp4ajJHmWFy1RKxiQMGDjYjRk7wTVte56+B+0uUWNArhFDZf86J7t3P/yM4HwcRYofROfi50stWLhYVzFECWJYhPgYJMmuh2eef6WbNmOmCOUJ7uTm7aMti303iSrSg47WcQtsAT1i5Nj0ODI+e2lCU5J43nHjf3ennX2ZLtdcrKvJGwPRTJTixoBh42GGVKSuuuqqG0SmNhHZGlfqIP5sUMJSGS5EXxwj3EJoqABgKuERwtAHVGKGgISdNATiroHtttuuedeuXR+bPXv2NF+mDeuJIMjxYwywDz+L7KgyEgaFrMbA3izLe5i7457HdPEg4BXyWiumEJe/R8/pIkeNTtemeu1rTsQLMQZ050E5/8Irb7uVfk3+tTFEfDwa5/SZs13Hy2/Ufmsdl+Cb4omPPn3i6tHzY/dtnx9dvRNbiWKOlhJGiXEttXsWIfrRz/PXyDM8u56UtOFH4b3yZk99f9F2xNF7ZYwCiv/4JmfqYLpe3/7gDpDaf3K8APewqBPLON9+32Nu4aJoXOzavHN+S0DfQYJ6H369eANAWITjmWJAZNs/MAYwiqoffJzrTj4W7Wq4wekwrBvIK9z58+fPuOuuuzqJXKXLt62XsVmR6T6cYAgEY4AB56xLY6gA2LlSpUrs/a87EsJExmcsFOtDCS9pCBAP51pXrly52RNPPHG3GALRvrOGDQKCOAhjmuBr12vkWLoXAZ5uDNC3Tu348utud7PnzNX713YAob+GxQeCX8/n5uZG2/Xuw9S5w3xtmLgjl7h1FoDEy+54Tz33crzpzdoaIv6aVUzJe7Lzi6Jgj9IpcLpynlfO9MujeO956CnXudur2ixPSwh99zz7HgdGWwd3uOQ6N3nKNBWmhOkZx49fIEmLjAF++eb7H91RYlwwODKKj2c7WrsJGEzHYMVnn39F3i/rCxS9A+Jl9kMNWkRYFKlwnYygYvCnOQ9DumPDTH9cR8h9SWiiWFuBFg7eVbQQUWQMhC4ZDDEWVWKwpA8jToeh9EBe4S5cuGAeLawiW5lRwBTxEpHl4iLH0RnEs4vQxg2Uc2RsFQhulhmMAIhfdxy89dZbb5o0aVI0L0lggmTDkBTGfX74Sfek1/7e9AGEosRo3mXaW8NW57hBQ4br/QmFrB49mUD4jTWNgj9cVphfoKva7V/nRK01R0ojKMsoXo1bFIoOXpRrbrv70fQa8h8oRX6KiofGKzdQAz/k6Ca+JSAyBFBSjBvYff96uvUuffz71jo+nusfxgsw1oAlhv+si0RPRs+pv40ZS9P5f3VcQng+4sS4wtBhvQHWF6ALhjUMgjEA6SJo0uZ8N+y3Uelhx+GvCfwOvD8Q6EvBTTL9HMfpkPMgXKt+3oM/lhp/D3lfx2l3gLao+HzkuSlTrFh4XOPTkxstrTEuQ8mBjMPNy8vLff/995lR0MrL2JI0Blh4iO5llq63ZYnLOdh1isws1iqQbUq4FJy4e0CoKwt27Njxv6NHj/5pVWJpYcOGISmM2S+gVbuLtfmakfPptTrWHUDIozSfePaF9JpqrET+jNyzODc39dLr7+qaBSzPqzMIEsZHiDPUkHXlP6ltnt3xqnhxoES8f6gUQbiEKZFndLhca9x0STBLQOPx8TISvkbtE1R5JZ+blgnS8eqb7xGvhuXjX2Pc+qOkL2fBwlWscKgzGRKLHvHMGFh1T2yj4xUY3Ej3Ab8Rly7wJDXpG269z83PyYnD44+PYo3QKwX4586fn2JPgG++7ecmT50m+VbUVy+XaJ5sAOO0MN2y2WkX6PLNcRcBxoAQowfjinES51x8rZs6faa/K0qD9xpKGUuWLFn++eef99h2221p7YVqDMB0uby+lLCSLQMYHPsL2djOUE7xV2EtYfqyw1m3IqH4gyEAG59wwglnDxw48GsRZCp8TIBkB16g67vMzctz/7vzQW2+pibOqnEqzL2iRImhQKmtHtvgNPf1N320m0ADEqAXhIAw9difj/NqhRhyo8Xo6PTAU+6Aw07Wbgc1BKQWSdN5UU0yUiLBX10MBZrZax3VUDc3ClgXgwCwcdHdDz6lfdd0CwTFjAuZdgiDEiNuarjMsKh3Uhv3bZ/+Gg7xCTLGq78UYRXdGmzGhEHDlEIMjeJx1lOG4+iZj9U0Ypy8IgZIfkFBMs4/fV5+BxhsPXp+olsTH3DYie6ci651nbu9pmtKLFqUy5bJ/o4iyG0hDvyrHaeDPB0o4Z1z0TXazRFNjYzKTshH3iEGGHndudvrcTghbD0wlDry8/MLWahtt912wwAosbUGxEWOozvoijhYuLnQUE6xnZAdrkqsVUDC1EIDvZ9zzapVq9b6k08+eUmsWN1nIAgQEyTZQeJdpl59631VQAyeU+WEMBflFEh3Adv5UlNu0PJs99GnX7vFi/OitmIfhg82hiicVTStjxk3wbE1cpv2l2hzOM3+KAea4XeVGjNz6aOBfZECSRoEKBeUDLMKWOdgXQbTAX/NKlFcqzAmmJnARkwYICEOGOJOHlNbp4m/3flX6B4KxEVYnmuMl98Eet0XvfroCoK0ugRjIFBbCITJOHUWgeQBXTKDh/yWHt4fPisIl7A64AOPdtbunS133E+nSzLl78Rm7dz/bnvAvfnOR+7XYSN0j4lly5aJ8aBGh977R8AIXLZs+aqx439PvfDqO65xmw66o+HO1dn4CcOOZ4jykLzDEGIcQePW58ZdHiHv9MCwUSB54H777be+Rx99NF2/8VoDEH826GV5MAYIm71sthQayiEY7LGvkIxl8YisGwKBEjaFhgKDn+UrGz/44IN3hQGDCA8kiJZkwwbDv090uR6PGD3OtWp3kSoP7TMPNbyEkqQ5f9f9MAgOcXWOaaYDAD8Uo2D4iNFu2vSZbubsOW7q9Bm6Re/3PwzQpvVb7nrEtTzjQjE0mBlQO9qIp2Y0OI8aOrsBMrCMGvEeB9BlUKRMki7jGeo3ON31+TFaOpiyAPTgDyCX6HPiHz32d9eodQdVzHscyLiA6LmCIta4/bEaIdWP0Frt7Xc/ouvxA6/I1hiv/ujLKhgzdsKq1mddHG9alIwjU5y0FLDmwBXX38mCSXE4wEfxhwiXYYQ99MTz2uVAaw+GDQYBMzdoAWJXxZNbnO0uvuoWd58YDS+++rYO7mPGxG+jxroJE6fogEk4fsIkzWPy9I23P9AWljbyTIwRYJdFjDV9Dp9XUb5FeazTVcWlhYSVGYGkUfME6glDqUDeN4jf+YQJE3495ZRTLhBZ20wYKmElYQygO1hvoJ5wK6GhHIJ5occKaRVQZe0zuSQKTCAGQeOOHc+/YszYMYMRvr7sGkoAwRhAUHcVgY3gDpsVxYIdpZUQ8vRx7yBKklH3LN3bsPU5Unu+0nW4+Dp3ptSim592gat3UmttadhRav2ER2tAtf2jdfohCooa8IWX/8+93uN93Z+A6whbd0z0CjIoSRQz8d3S6SE3P2dhMaWrD7AG8HRchz9nwSJ3zU33aDzRTntR+EmFnIxzBzF6WEK420tvxnPjvTHwp/Hyu2DV/JwFq6675V7tM98tGFlpcQVFikHEe8EY6/rSWy4/f926CEC4JG/JUvfwk111cCItL/TdEwdGQRiUSSsPrnYN1TrWHXJ0I10amqWF2UmSPD393P+61u0uViOq7omtdYnlqtUP1/xn6uPu+zH+IhqMGT+TxFNdzu2096FqTGHYzJw1t9izaCINGxWTJk0a06ZNm6tE3rJ7YUkaA3QvYwygS2z3wnIIdibc1U8nDDsTxgZBNihhBeWvYQspMM1r1qx52nfffft+YWGhViWQIFp6DVlDEMowGFzU6i+68ia37a4HaR93cuwAxoAaBKq8jtUm50hB19HBhSzeQ4sBwp9jmo6rSBhaK6ULgJqiKByaklHqNB23aXeJzk5A6dGkHa1nQLyRIZI0QFCi/9pxf1e/YVsWCNL0Ui4A/jVBfo6fc8WKFY7ukD0lTNKd3lWQJPHRgsA+Al+t5b4IAXqVj3PZsuXuma6vyLtCKR+uz5Ipvsjgqu/+vXttndkx4OfB6WGt1TcQLsMYoGWAlphoCeSi6ZSR4o5G+dNyQH8/15BnzJyosmeUh//ZI1LmkPO8M67BuAg7TEZMPIccE9dOct3WOx/gTjvnv274iDGrPQd+Taih1MC7573zh2MxBsaeeuqpV4vMLZENiySspDEAjxOaMVAOwahPBg6GJp6sFRIo4QXDAjdYpXQPNHriiSfuy8nJmeULsArVZCE2lBx++uVX16DlOW6LKvupsq8ugn0fr5SLKy+USqQMUCooB2q0uCj/WDGIS80RIyAsuIOiYEAbmwiFLKX/+qTmZ7ltxEjgOuKNwuD+qGXg79vt7Vqc1tGNHDWGorBOhUGuVuUz6Nff3DEN2upqhDof3tdqA6Nnkxq0uLRcnN7hv27chEmrCdI/Q7gM9/OvvtMWFBSpKs9EfMk4cZmCd/5l19PtogEQH9DA1gL+8hQtPa+//aGG+a+d9pfwJQ8Okrz0cUVKPMqXYChwLS0h5B8kL5ldQmtNGNsQpd/T36OGooQZpqTS8sJz0Lrw08BfeWvx9+thhkAZgBgD49u2bUvLQIkZA4QnxI8eOVHIGDRDOQMW3CnCeOAgzJTp60sJLzYI/HGjNm3aXPDbb7/9TPO1FxzrIvMN6wh5vUkhnVqxcmXq629/0HXmt9rxAK0VYgigMBD2yVpgqLWnU5W/UA0JIYqEWuXWVQ9w+x92kut0/+PaDy3R+VTodsMpdg/cSxQW/evcS9M29/5nj9o6gLDpqee5L776NlVQUBAl1qfdB7FG+OtUAc2aPVe7JtgAidkDxBEpxIikv3rt47R5nWtuvP0B7ZYAa9tFALgkXDZ6zAQdEBjtnBgp33TSTM/20QxufKrLi44WBR9X4Fp9B1wn0OuZTnjdzfdq68DWOx+oLQC65LEq7mT8q+fhHzMyALiP9xdteX20DiLcSlcgPNpddUMnN2z4qPAeFD59+jyaWMNGxeSpkyeUpDEAJbxQ2Tu7UqVKJ4l/W6GhnGF3IXNDw0jQEjEEPDlutfnmmzd9883Xn83Njda8TQgQYAKkBBDerXcVK0Qx/zDgF3f+pTe4XWsc5bbe6UC3056Hak0RI6C4IokYKQUUqxzLNShxlBt90tvsXFNbDViA5533P2UwnualRBUUnXLe/JzU9bfeq8si00Kw416H6b01DjnBXX/rfbp8L1Pm5FrgdbM+xh+CayF+7n/trfd0saF/7FA9agKnSdw3jeOH/9yhhhomDJhjCh0xEQZ/NNC1gN4h9zADgvRvWWU/rTHTJK/N8j4u/Lynf+6wr65Y+OOAeNnj8G7WOU7vuqnTZrjnXnjDNW5znipppmnS4kGcdBGwQ2MwDuL8W0sWy2PJL4wOxn50f7mHmzFr9mrvzPvtOy4jmDRp0gQ/ZqDEjQEhesSMgXIIdpc6VBh2Jww1d3WzQcISJlsFGrZv3/7SCRPGDfGyoxiCQDFkH7xbQVAgQPXspClTXZfur7vGrc/TWjQj+tnKl1o6g+vC2IDQl1xlj0MdewlQo0aJM4bgoCMa6GI/XV96040eO8HRb0/4a6Jck7rkqpvdzvtGa/M3a3u+KmS2Ik6CwrAuBSKEj3/mzNmu032P6yDH2vUau0OPbqqrE0IWQ6pdt7GrK0q50/1PuCmiTOU+wEqGVHM1vD9DfI8Q/PzLEHfmeVfocsess3CguAfiCjnev85Juv8BijQ3d0mxdyJc60fl2gT0XpZjpt+exZ4uueoWd1LTs7TrBSW+7S4H6/oR5Cn5SV7uvM8RquQxFpKk5r+jHxS4/W50BdTULgGmazLI8InOL2KwSXzLNb2agiKs03MYSh6TJ5dey4DQjIFyiq2FbCxxrmRoUNpkblaMAQlPwwzhituK3Qjff79ntzwmSAtMcJQueN8CFdgeCUUyWpTUW7o3ASPND6nXxDHynSllDPpjvX+a1al5sjgQm/C073i1u1MULtvvsnJgfn5BpnhwV+P43yen2HaYRXKGDB9RbOU8INfohcCfWitwl/c6WiF+Hvir+7LX9+7zr79zX3z9vRBX2KuPjmfAACEKjQjzKGqKWMc4o2dikZ+xEya6z77s7d776IvV+MEnX+mCQHm5S6L4BD6IdYK/NbyeAD0uKCxcRY2dFQMxsG6/51F33iXXuQYtzta1EBgUyoBPDAK6Zv5TrZbOOFCKAcDAT/J8v0NPcvXFcDn7wqvFYHpS0v85a0mkli5dFqdZYy2Cxu9/MpQRTJo8qUSNAQkryHn8GAM2ZqAcgg0lWLOaBSmy3kUAJUwMi9Aq0OjMM8+8bPz48UOiypfCBEgpQ996miLxP6kynzVnbmrYb6NSn335rS4i9PTzL7tHnuzqHn7yeffEsy9q7R/F0P/nX93kqdNTNI+HIKLQNOxk+OF4NS7Pz0/l+42J5Dgj9Me1RPIO8cTxRGf+HNwN/OGfwl+u13sv8akr0CmdScr5Nd231nEG+NsUiWONXy8Q0ELD2gksDzzo1+G6WdULr74t+fm8tojcctfD7vpb7o150x0PubseeNI99kx399pb77u+P/7sJk+ZzmqGmv50aIxFz7zOz2AoeUyaNGlcSRsD4mIQ0MLMAMLjhdYyUI7ARhI1hSEDKRxkaDZbBdRi9MenbrHFFi3eeuuNLrlsZScQ2VFMcBlKD7x3QSzERdB7XwR/mSsoKHRLly3XKWwscLNk6TLdVXANy9yCEJBqDu8P4LdiEemNAn+ov/tT6wUNREIJfg69W6yc+VPRdXqm+PX+1FoheQ+uIGOcSchP8TWCdY4zCQ0hAuFIVkZB+5+LgdMFBQW6cuHChYtdzoKFbu68HF2hEM7PWaCrP5Lf5L2/pxjSw0/6DWUPEydOHBemFoosDvK4pIwBjo8R0upsKCdgoaH6QmYRJAtHVowBKGFqIfH+pvXr1z935MiRP4QahgmRjYvw/nEFQYmoQsGThN4g8IerIdzL33Cd3pAA5wTJsPVcIt6slIcQDq4gfi7cQI4TvxV7Pu9dJ6SHwaFQw8/EBPTA37pB0NCKg3OZzq9VfP5SoO8qA7OSbkPJYtKkScNbtWp1CTLYy+SkvN9gBjkvrq1AWE7xb2FDYfp4gQ2mhBUKB9SCJ2zCssPz58+f4cuooQwiTdjHTCix9N9AcP9UO/iril3mT2Vdsfhg/xT+8qzDB58Ryd/14hKEjyaZV3F+rokeeq3navDBG8o4JkyYMPCEE044T2Rwcy+LS0reM16A46OE/xIaygmYUsiqgzql0GemWo1ZYAgLYim2rFKlyql9+nzHaoPRvriGMg8v8/8Q4Tq9wVBmkcyrdYHebCi3WCkYOmTI1wccdBByuJWXzSrvhZlk9zozyHpx0SVsR19HSMuzoRwg03iBkKkZM3xdSVghPHFZZOiSCRPGD/Vl1GAwGAwljGXLluX37tXrXSpjIofjLYyDbM4GfVjIewaiEw+65e9CQzkAe00fIcSSK4kliLXAeT/7Wzfq1q3bowsWLMihgPpKh0JLrMFgKFfwn+8fwl9q2AgI7z8vL2/pxx9//NoWW2xBKzDLwJekMcD4M+JgB1wqnIZyAPpzmP4RphRmrWBAwhSXcPG32HbbbVv98MMPH7LinS+ocT8kxwaDoewgfJe4SfgflXqCsQXpjIBHD/R6Q6lD370gNzd34euvv965UqVKDB6kYhbkc0bZvT6U8LQVWIg+aSHcQ/gXoaEcYAdhE2FsDMBMGb0+JExxCRN/45YtW14wevTon7WUCkJBNRgMZQPRNxl9luKNlHkGZa/KPe3zTR6pX34nvBBG8h49m7hGTxqyjvBuFyxYMPuRRx65T+Qwg8VL2higZaCRsKqQ3XANZRxk0h5iKdK3Ey82JMyKMUA4hCf+0HTU5MEHH75nzpw500IhBfgNJQP/ihX+lMGQEVEZUcXsDQD+rnJFyp9fi5cpBefWwAAmEPtL/Y+RAUAU3r9Ba0oY1gzeM+68efOm3nLLLbeKHEZJM7hPjQHhBst7H0YwBCD6hNUHbcGhcoJKwv0lExkrEEZ/ZrNVIBgD+Ok/avbeu++9tGzp0qW+kCILFBwbsoPwPvXFekGOT89Ggtfet0ERlYWoTAgoLCkXGwByhmuiSyMdvqrApQpyXGrJVJdaODqVmvtLys3o7dyUT52b9IFzE991bvKHcvyZc9N7OTf3Z5daMNKl8iY7l79AQvDriuhfcaMorEyWAqZNmzbqoosuYsEhWoKDjC4JY4Bj9Eld4T+EhnKAvwprCZlFwGyCrBoDMIQnbvNdd9311B/69v2woKBAl6wLc5i1pBqyBhXkwS1GEfrIepXyVhPb5CGlJCor3g2UwqPlRy9Z6VLLZrnU/KGi5D9ybviTzvW/zrneZzv3WWPn3q/rXI+DnXtjf2F1zxrOvSl8q6Zz7x3p3CcnO/dNO+d+usm50V2dm/mtSy2dHiVB/wYUPzJsOIJ8Xbly5aqhQ4Z8H9YYEJncTqjKO8jqbFDCw7gIM9MOEaJjDOUA7FR4uGQiTTqakemZu4EMliItD01btGhx4fDhw/pJwdQCikLyNCmQJfAueZ0RxeCKjvUF81cNggjRe9dfDJsaNO9Z/ROHA1oDOB9YsMClcn51bpQo776XOPfRcc69vo9z3bZx7tnNnHvq/0V8UviEd8O5cD6Q46eFXTZ37oUdIuPh+47OzfhGymO+piGClcVsQ/NZsHz5suVMK6RCJrK4JfI52/Ley3oqlGFm2v5CGzxYTsBiEKwdjTFQIlaiuISpxsC1115747RpU8eEQiowQyDLCC8VAav/ls1xbvEEl1qxJBb0WvkrQlEeWFZsEtBcF2gZCeA8XDo7avIfcL1zHxzjXPd/O/eMV+gQ/7PCzsLnhM//n3NdPZ/n2J8L54O/i5B7MQowHp75i3OfnOTcguGaJit7JQOftS4vLzf3jTfe6IocFsZrDHj5nFF+ryslvGAMoE9w9xLa4MFygm2EyW2LQ8HIRgEhvFDYaDpq/MQTTzywcOFCkTZaSGOVxLEhO9AXqtaAYJHYXQNucO6rNs4Ne9S5nGFaE1Ohz2W+WZjLhVFTsYBbDRUXcR7L39hfuMi5aV9HrQCvVxdlXylS3ChwFD9KHuXeDeL359aV3ItxQItB9+2cG/eaJGJF8bQYsobwThfk5Mx6+OGH7xU5zEwCFLUaA8KSMgaYVriz0FBOwLRCtrLsIJkZCkZQ4hkzfG1JGJ74aZpq/NJLL3XOy8tbTOFEEeEasgv59rW9V/8wmOvFHZx7VARv162d+7Shc6O6uVTeJPmVfyqDYyNAUGQQmFyu0NA85hNk6Mji8c4Nvtu5HgdFyh9Fnaz9d/F+zvF7JvJbuCduNfgDck03KZNDH3ZuxbKiNBmyDl7rxIkTR1x66aVht0JkdFbkfJISXjAGmFaI0cGeN4Zygh2FzYRkHpmYbSsxGAMtK1eu3KJnz56vLVmyRL98CigfP9ASa8gK/CuNXuq8QZEB8JTU8h4T4UtN7+WdnPvmTOcm9XSpZTOjKV96n7DIKNAWA+B/JTRDBQG5q01BAEPgu/NFOW8eGY3ahO/LinYL/EWU/F+j/v7ntxCjcitR4ttGtfqYcsz55/8ZXRvGCaDwMxkCEAMDY2DIQ2IMLNekROXNkG2sKCxcNXDgwC/r1KlDd20zkc9h8GDWjQHvok+OE24pNJQT7CJsKcy6MQAlvGAMtNh9zz1P6927d8/lAgqoCiT7+LMO3mmANr/O7BON+u7yt0jAQ2pwr+7pXJ+LnZv6mUstn5swChTkjWfwBsPAUN6RyFDnZnzr3Ns1pUxs6dxLYii+LuXirf2d63mEc580cO7r05zrfY5zP1zm3E83ODfoDlHg90c1+mGPRN1PQx+U83c6N+BaufZc5z6sL0bnzmIMbLZmg4Ay2H0b5357wrlVsTFgM1yyiJDFy5Yuzf/wgw9eFjlMKzAbFAXZXBLyHkODmQSHChmgbign2FPISlRhwEc2WwYoGGp5itvi0MMPP2tA//6f5ufnF/qCqgIJvyF74L0mXZCa+4sI6fbOPSc1O4wBBDQ1t2crOffmviLoL9f+4lR+TmwUAK8yvDXgHYH/2VBOoZkomakFZMn0aLrf4LucG/W8S03+wKVm9HKpnCEulfu7S/H7stnOicHoChZKNXNJpLxZb2BVoVDclfnCZfL7Arl2lkstHOXcuDec+7yZKP7NMxsEnKNVgbgxWg0lhpycnNmPPfbYAyKHdbxAQj5nS96HFgHCxBCwmQTlEIz2DAM+StIYaH700UefM2jQoF4FBQWxskIiaWk1ZBVB0IdhGfrCaQ7+8WrnXtg+MgRCX7A2BYtRwPzwfvL7dFEEy+fIPdFUMwXZ5LOKPCN8PTBUDKCMRamTxxQZLTsJAnI//byS6/09XBOuw3VzBzr38SlF5S1pDNAV8crO0UJFFCe9wVASGDt29MB27dpdJHKY8QJZ7yLwYaE7kPnoEiqY7ElgKCdgysc+wlIxBo4//vjzf/nllz5iDGgBRaGgVfTAkFWoshZzQIWy+kXI8wM1vKEPOffanpGAxhhAMOPqoDHfUtD3Yl1gJrV0pgQjtT/uFZBfhKdkTEE0rkCDNpQfFMszbzACPRlrdyhnWH+AshTy2+c5pSB5TbgOqp+gCnOdG3hrZGzSLRAMAQwDyl+PA52bPSAup1aWsgcyCbewsHBVnz59PqhSpQo7FbZIymZh1uQ99GHS5Ux3xPZCQzmBGQMVGLxfFdKxPzIIWG/AjXvVuXcPiQaHUUNjmhgMLQVP/58YDNWc+/Zc58a/7lKsU7Ay6tdVkGuWcxUKobzgJumVvHjjc/rRxpQ/RQaCuEI1HAiUssbYgm7/Km4MUM4oYx+f6NzC0VwpxVPvMGQZixcvWvjyyy8/JTKY9QWSXQRZMQYIR1xaGgLRJfWEtgxxOQLGQHVhyEAzBiogeM+x640DbRKe+plznzVyOoocgwAhHeaOhzEFCGwGgtH3+9uTzuUMjwR8EpaDFQ76bXqFjp8PVT9Wgf6+Mj+Vys8RLpAfV0TX6VXi5b9vGdCy8uv9zj33t+LGAOWrc+VoFcKlM7gyipMyathgaEYI8E+YMGHoOeecc5nIYMYLIJtVaSdldZaIvD9LXHSJLUNczmAtA5sAeM/JFgKEth6ABSOc63+tcy+Jwkf5pzflIrQZcIixwGAvRon/cns0Ap2BZasSA79CqGm1SzkRpcFQZhHyJ84zbQ0Qn0AvUIi3cHFkEI58LlLkLFA06UNR+nnRFRFiQ2IVGxP9KOUrzGAJZYvyxGBWuqx8ixP3qcewwSATcGmhGTBgwMe77rorm8SxH0Esl4XZNggIEz2CsYFesZUHyxHMGNhU4BU0Xn3vQVhzzDiCkc8699YBYhAwpxxBnRDcSQGuLQgixLmWjWrGvuzcwpEutSJXgl1ZJMw1cF1HQpVLMm5cw8aH5oWUC+zEOI+iAx0KQBYqVxWK4TfNuenfiCF4p1+iWAzDZ6WssH7F2wc7N7EnYdDUL6HIX8Ll3iVTnet1WmQMhPEplC2OX9nduamf63VEpPEbsooFCxbM79q16yMif3XLYi+LsyrjxQ3dA+gPxgvQHfEfoaGcodRmE5gxsPGh79wbAuH9q5/a2ZRPnPuieVRjSwrvdGIsaBeCKIIX/u3cR8dHc8+pIeZOksBWqIDX9ofAhGGgCocrVPGI11Cq0DzwblGeSEbwX/xR3slfphHOG+zc6O7OfdvBuTf3k7Lx96hsYBRSPlig6Kn/i1qXVvjuIylRIdvZvliNB8pLKD/c90wYLzCKqzAiovJgyCpGjx49uHXr1heL/G3k5TJKO+utAiFMIcZAfSF73hjKGZj+wVLBJW4M1K1b92wxBr4SY0C3L/aCSGWGofSg7z1pEJAL4kcBpBaPc+7nW6LBg6FpN72VQDelERehzu9ch5J4fW+pBZ4ZLSIzu69zy+ZImCsjw0AjjkicCH5NQ1QGAmNwuWHD4F9l9OoT71nfvbpkhl7q8yjlVq5Y7lILRjr3+zvRAkPv14taAZ7ZLMpnuo0oD2HAKTNQusnvjCeJotJ81czkgGmD7HTIvaH8UGY6S3kZcJ0YELmajDhNhqxhmeCLL754o2rVqnQRxLsUCrNqCHgSLusLQLbEt/EC5RC7C1mBkC0nS9IYaFGjRo3T+n7//YfLly3TpgE+/iAzDKWP8P4VIsBVUXOefuFJ70fLGCO0qdUFBbCaUSDEKEBJaDdCJflti2hFO2qTI551bpYYBqxw6A0DgOstEFUExY0D3ChperFhraEvTeD94UVGrTH6roX+rZIHGADaZ794gnOTRXH/fJNzn5zi3Ku7FeV9aAXQMiD5zUZF+PmN/S76X+NSeVOINgpcHKJIsd/AkAcjQxEDgDLDfRgGr+zi3IS3ovj1Fsl9TZVhfaAvP5nfgunTp0+47rrrbhDZm9yYKOuGgISJjEfWU6Fk+uKuQkM5BLtKsbtU1pcjlrDUGBDiZ2+C5h9++OEbS/Lywt4EKvHxGzYOojyIsiHSxfg4v9K5Bb9J7fB/ohh2jwR/plaCJPlNm4CFCPxn/hp1IzCFsVe7aLAYCxotnb4q2k45muqojBQCfyImkemcoRg039Sg4390FBsAck7tALkO6m8YfOxoSQvAz5LHnzaI8hkDgBkk5CH5TX6m53NoDXpjX+d+vU/HBYTciaL2BSpvqnPfnB2VnRCOlg8Jn1ksi8Zqekgc92h6DesN3rm+R0FBQcGKH3744dODDjoo7EWQlMdZNQhCmMIOQnbA3UpoKIdgoAcbFbFroQ4ESc/s9aWElTQGaKpq9tobb3RdsmSJ7looBTcUYJP0GxO8fpUhPj9ElOtpSL/x5A+d+7yFKPt/Rs3CmRREOrmG1oKgOJ7eLNrcpseBLvVlGz/GQGqiC0c6lz9f4hVd4OMM0LQIircaxNzkygzPLEi+gyLGhoBepy+S9xnoVuVHgwDnDorWmGAlSvrstQVg88gAIJ9CDT4TyU8UO5sRfdHCrZr8UWplweKijEjPkll9JL9rRWUmhIGRQTkafJdka7xtsRoC6hrWC/LugJYFjufOnTvj4YcfvqdSpUos/sNqgFmV7VDCC62+hM05WgbqCG0/gnIKtphkpGnSGMDVjN5QhnDEpdWhabdu3Z7Izc1d4AtwEGZpUsRQ6iALVle6Pl9EvjDQS2qB7t06ojCkxo9SoCVA96b/EwbDQLsRhAw8fP5fzr2+lyikE5zrd7lzY7o7N/M75xizsCI3itaDRGhKAjMbB0r5tcJCng9Ez4rypybtcygJfUX8FSPL5fzm3JRPow2FvjkraqV5sYrkIS0A5IXPE/IotPqkdwdxXvNODAZWpxx0p0stHCvp0Vg0QtzIr3/FlbSN7iZhST5zbygHxPeOpGFWX2+k+FaB6MiwAaBw4K5cuTI1ePDg3sceeyzKGWNA5blnSbQKQMYKMPaMbmebUlhOQZPO8UIKTlatRwlLC4r3E3bjO++88445s2dP1tIroAADf2goA/BZEkGVbiSqdeVCant9L3XuFalRIuT/rOsgnVyLYRCMA4wKaqYvbh8tTftly6jfmimLGAeLiowDCknGgqIJlBT6YkSqk9STgGvSuVFQPA3p6Y3pa/tFjO7G8d7i7wTlT9fO1M+jsRrsMvjJSc69tkfUt0+3De875FvSAFgTuRYF/uIO0e6FtBIVLIri08h97CGNAUtnOff9hdG9XcSICGF1/ptzP14lebpULwvPuvHyouKANQVwFy5cmNO5c+eHK1euTCWvTZC/Sdm8oUzIdVxkO10Epwiti6AcY3PhUZKhWTcGhGqR4grpu2py9tln/3fcuHGDtfQKvDBISBFDWQB5EkOVkpyT84js1LKZzo17LVLcKImgYNIVyZ8xGAYopmAYsDcCAxCpvb5TW+JoFSmPEU9HUx/nD3Vu+RxJRLTYUUhTEj7VUc3ZK9uo0zw6jm76AyVcCiyWDjW4Euej2jK/FgMn4pPsELhkinNzf3Ju4rvRFsLsJ0Hf/5vVoxkAXfzKkihk3nEwADLlRTrJl7BXxXtHOvfbUy61+HdJ1UpNbJSIkCJvs/CO/S9uVj/n3q4V5Snhkdf43xKDb+a3UZ5Fz8kDF91nWC8U5YlzQ4YM6XPiiSeinJsgd4MczrZsx/Xh4jIAnS6CykJDOQVTQFg6ksxEYavFl01KmBRG3Ga1a9c+c+DAgV+weQYFN1izhrIHBIwqKoS2qir+RHJbNy9a/HvUFPyx1D6f39Ircy/816b7IBNRVsE40CZsUUa0HHT7dzRF7aPjnOt9VtR6MOo5HQGfQiHSH46CTLE7dlSkNP0eHGuBS7hyWmvfOEp91jUwIN2/LgxxqEd8IR3e5ZgfA7SpnWWjC6UmnjfJuTkDRPG/FxlG/a9x7qs2oqiPigb+dd1K3pvUunln+t6EoQVmXVpuuD7cj+JmAKm8X7YnJp0+abr1gCAyZOLnC3/FUGOFQsoEYTH7gHA5HniL5lOUIdEbkBvCKzCsA3jVvO1Azi1cuHABrQJ+rMCpIn9VpiOD0+Xy+pLwguuJ7mBcgnURlHNUEtYUniWk3yerMwqghBcKT+vKlSs3++STT9/IF1B4zRgo40Dgq8hRMe/9+OQn4SoGpuVIbZ3NaN4XxfScKG5qlCgTlMu6GAVh7roeiwLBMIBBQWFs4D67mcTzz6hVgj5s4mXvBLovBt8dGQmTxEiY82MqtXBUSvfhL1wsCm2pJHqFpDuaxaBPwjPiX0uCTOfXhkD98dvkQNKDEbMi16WWznKpRWNSqdk/ptgxUp+DFf++6+jcZ01F8R8RjbPovr2v9f8l7b0I11X5K72yDvn2hhhdLDM87SuXKliQNJ5izQP8w3BeKvkenGIWQe/2UbpIS2gV+OhYLSsaXnRf8jbDesC/vjhLhgwZ8s0xxxyDcm4qMhdDINutvTBuFcAvLq0QJwn/JTSUY2DJsVlRsPCCtZeVAkQ4hOf9GBqNxHJ9bNGiRfN9YTaBUB4QCe8ioM7IOX4SrlqxxLl5g6JBhuxfwABBVqdTo0CUDUZBN1FeGZXRH1ANBN/njFJJNxAIPzSBM7Dxeakhv1RFFFp153rWEQV0gnNfnx71n7OY0rBHnRv7kkv9/q5LTe+VSs2V2nbOMOcWj3epJVNEIc9wKTEeUvkLXKpQFDRb8GJE6F7/hUJGwK+MiVmRcuLSUiLX6T0odlGiqfx5UXh5Em7u784tGu1S8we71IzeqRTKftwrzg1/TGrLt0WGDOn8UBQmy/uikF/YUZ6V3f7kuVYziIS8h6Bs9V3597Q2DEZa0gh4TeL8/iLnJn/sVi2fHRlMUdZHLQDkuOa7/JL4XPlBz+PnxPReYqTtH4VL/pHeF3dyqTEvyLXyrqKy5EO0ysCGgteIm5OTM/vRRx+9CxnrZa3K33SZvKEMYYqLngiVyAOEVCwN5RysNdBKmPW1BqCEFyxI/A0vvPDCqyZOnPhbKMgClQscG8o2otzyigGKP2SecoUYBfN/jRab+ejkaJ2BoMCC0toQhtaD0IIQlCGKEYVGXLjEB4OxwA55XbaM+tJfrBpNqetRw7l3akXGy2dNnGPKI1s2/yC14n5XOtf/OjEgbnZuUCd5ngei1g84TBQ4K+4NfzwapT+M8/K8g++KDI4B1zv3o9z/gyj478+P1lj4XGr2TOWj/72HKMo3pIbP5lDd5f08J+lC4Yc08wyBHJP+8JzhHaa/h3UhYRAmyrrzZtE+E30uViMgtWxWlI+a10LyOuR3kZ+fFXrgz+svhXlR6wwtF2qgwb/rjBGMLG0VEP0fhUIEcVCG9UD0EqN1Bfr27fvh/vvvr7O2gtz1zHbrgIbnw2asGVPTdxAaKgC2ETISFGNAC1CGArDe9OFRGGm2alqtWrVTBw78+SstzQIpzyob/KGhrMMLcZ9tESIlEdUMwQoxCqhx//aUc1+0dO7lXSLFhgJCQWRSUlmj1JCTypPaL3FiGASDIRNV8VILF+XFOIUu/5T7pWb+/NaidMWIYNldjAkU+As7CLePzvEbfH6b6Hru434NR4wQBuEl48DNaLAIk+nmWdZH2ScZVgzEj8EU4n/uH2II1Yn2FJj6mQ4KJe9iBqWv//33Kf+VSXDaX6u/MJvhkwZRHDzT03+JDC3Kgl4egskQlmGtkf76WG3wWoHI14YiZ7VCB73czZoh4MMMhgYuOqOukIHohgqAfwqPFpKxQXlnLAzrQwlPrUjxYwywXGWzDz/88KVly5fr/CIRDEiTSOAYyhFUUQCvDRKKQaCXsNTtorHRVMHe50iNWGrj9PkHxYiCQlHRbL2hiu/PGMLHTSrd0O2QbjQkFXZg8nym38P5QMILin61Zv0Ek+nMJomL+IMB8uKOkXJmLMKM3lFXhuakJ/nn87AoJ//kuww/040y9hXnXtk56iLC8Hvn0KjbIJSVKGyNJ7rJsD7gleuLFCxZkpfXs2fPF7bbbjtWkoXI3VB7z5oh4Jk0BkK3Mpvd/UVoqABIziigDyg062fbolSKv/H1119/87SpUydEBTsCfkP5g8++pPLAq83K/hK5aCUDy1K6AA4j1HUDHKlho6BCnzXKsiQV49oyqaTTuS7XwvTrS4O8R62VC0MrAGs4fNfBuTEvRLV3liMmWwK9EaC6Wv9E0Iv+AHpRuJ7titnW+vFKQon37YNdasJbqdTKgigcCU6v9NfrOcN6Ibw/BmAPGTKkb5MmTRjE1zjI2mzK7sAQZghfSOXxRKENHKxAYBDhPkKsPAaD4GbdGCBc72+23377tft18OBvtWQbyj1UuguSfoQ+CiBAz+GyaA3TAZl+9u150RS2MDUxaRhkUnTG1RmMjmBYwc5/jaYcfnyyrhjopn8tVUhR1k43DC2WR2K2hRYd+aM/6u964Z+A6wSRdp/ZRwwAyctHJP6eR+r6B6lVy/UnwvTXr3XYhjUjvMM5c+ZMu/fee28XmdqwUqVKrAAY1hXIqvyGITxx0Q9UGmnp3U9oAwcrGMIeBVkfNyBhUYjUGMAvbCsFt1mPHj065wm0dBsqHmLBHysblWBBE8hZl1oyjVH9zv16fzS24LXqUU0WhRZmI9DEHpTexqptlyWGd8B7CQaA9tFv5tzLu0ZT+H68OqqVzx+aSq1Y/ROTnIgyJMqXRF5tAHKGO/fDf537pp0YH19JmKz5IPChEr4aiIYNQsinpUuX5n7wwQcv7rjjjnQNNPfyNsjarBsD0IdJ2AwcZDfEbYWGCoYthScIzxOq9eczfYMLVAjDu8Hf+Lzzzrt80qRJOqvAUDGhCgC9E2qeKANW3eOA3wNXLncppvdN/jgavf9FK+d6HORct62LWgxgstUApVgaYw02FoPxk5xaiQGQfB8YTizGxLbD/a93qfFvOjEAXCp/vjbJe1UfK2JlnC9qAfgc2HCkVhb46ZnTi0KMw4+MDaDnDeuF8P7Yf2DgwIHf+P0HWGkwGAChIrfBcjtJwvYuYYdWgQOF1ipQAcEykiwnSctAGDcQF4INpYSDmzQGWlapUqVN79693ykQhIIewLGhYkDzU/8LIqOgqFk6HHNdIPP1mZc/7Uun2x4z8JApeS9JrffZykXKUGvDwtg4EKUZuC6LHZUF6joMIf3+XHLwH8/LGIDOlZx78T/RZj/sFTDoLpdigaUFI3TPgGLvUf7IG47fe/TGI2MAcOi9WUGIF/i4fcaSBmsRyAZCnk2dOmXMVVdddZ3IUVYaPE1karzAEAxyNhtMCxM/OqKJkE3uDBUQjBvYQ8iykmdLpmfVupQwQ0HSMMXFgm1011133TJ79izduIiCHsCxoQLC64dIQah+igyCQP97oFtV6Bxz3+f0j2YkMPjwixbOvV07Wi+AKXzPigINg+UgfgyEeOQ+xoE3EMI0u41FTYMwqfBhGPSXfAaeixUdXxDlz0JEzAJg62FWJpz5fTQGYFW+vqfozXnQ8hK/U37w75jfiq7KDghPw9T8jOMiWs3OEL8gusGwocjJmT+na9fnHt58883p1mV9GJWnyNcgb7NJCTuW2eJSUWSg+UHCzYSGCgr6f7A0w3bG2W4dCGGGcJvtv//+p/fr1++TwsLCaGSTYZNBUBC4RcorQfk5UjNFiFoNJooy/E6MgxejRYHoo2ZJ4lf3jGYodPmHKFKpQRfrT/cM0wdRvsFgSFfY2WRQ9EHZh/iDwg81fpYWpsmf9PMc7DnAc/F8KP/pvVxq4ehUqmCxvi7/OmL491XcsILRr/G7zjoIVoOOjYEYyXPRxYb1RXiHy5YtXfrhhx+8XK1aNaZoM1Yglqn4xc2qQeDDxK8VOWFoFbCxAhUc/xCG9QY089MKxAbRhxkPThSXxTEaMhp21qxZU5KF3rCJQXVHQqEUKTQUXXSeyzxjsFRwnhgHs/u71KT3U27Ek84NuC5a9e+jE6NxB6/sHi0QxIwFFgEKrQgMUEzWxFUpJxgMiLVh8r4QVno8HLOFL+lgf4FXdomm/H1QX9J7RpRu0j/pfefmyPOwORHP56HvwMMf6zuLWwIS0PPRZYYKAipMLNbm9x5AIQcFjTwN8rpEjAHiENIqwGwzaxXYBMDCEfsKyXydYigFIduFSwuW+CH9XM1q1qx5+nffffe+FHbdl9bLM4V+BYZND6rPiiHUemPFl7QKogs4KWBfAMYcRPsAOPf729HSwT/dFC27y25/Hx3vXM/DnHurhnOvSU385Z39ioLbONf1X1JL30Jq86wg+FdR9p5hYyDccI7fuY5aPUq+27ZROC/tGBkhhN/z0Ci+L1s7933HKB2/PebchDei9JFO0ivp1mfRv5Eb+8XD4/Hs8gLEHzXFC+L35C81VEAwYHDMmDGDLrzwwstEZibHCZSYISAM4QWjg8HlNoNgE0IVYfoUw2wbBGrNJtzG11133Q3Tp08fR8H3si2u6ujXYNhk4YsBSPoVciLSlFwn1BkK+kOE2GWaW8FCl1o606UWj3OpnKGOTYpS076Smvh70eZFwx5L6UZLv9wRKex+V4nxcFGkwL+/MFoT4ZuzI5djzmNc9Lsi2lKYJv3B94jh8WjUtD/hTR0EqfHkDHOpRWMdC/OkSIefdpdMZ0i2+tXokROi/FlYRvcM9kZQElxvqJhIZu/kyZNH3XzzzTchK4VtRI7qgEFxS8oQUDktrspocakcEmcNoa02uImApYnrCZmyEpR11gwCwhQ3Wcg415K5sixRvHTp0uUU/kjURdCvwWBYEygivphogQmKM6E88fG7nuG6DFy5qlBuKUix3z5bCmM8uOXzhLOFczznulTs57z8To0eroi2SUbR02yh4f5BfPrb6kpe9/Lx/mKQk/xk2MRAJenee++9U+RkMASSijrI04zydgOoYUr4odJG5ZCp57ba4CYErD62NKYA6NrTFIzg+oKyQSRsceOCjCts1KpVqwtHjRr1E6LSy79YSvrvwmDIDNWVkQL2fspOcUZKN3Q3JEiJy8yATL+tFVeLK0H5m6RcHso9txoMbvbsmRMffPBBtiXGEGDmQDG5iYtMzTIJO5b7QloFmGW2u5BZZ4ZNCNsJdRdDKRBae4dyHPs3lBJWKMgUOI5ZSrPJ448/fu/8+fNm8iF4uWiC0bB+KG4cANXA3i1impJe5QctMjAvSc55cl2xa/D7+4qFpZS/a6BPnpVxQ4RkUZgzZ/bULl26PFSpUqWmIhvDFEJV/rjCrFXQkvThqiuka4BWYnYm/JvQsImBkaK1hKGfKGkEZLXwSdjBwsXfnCkzn3322ev5Aj4I+ThE2hoM2UUoV7jp9MpdfNFqicnjWLknjz31On5LYzI+g2FNkDLifbrnwOSuXbs+VqVKFYyAuEXAy8rYDXK0BEgcyGS6B5oLdxAaNlHsJGwpLK3WgcAmdBeMGDGi38qVK6zmZDAYNhkg6mbOnDGxc+fOD3pDABkcy0cvN0ukRSBJ4hBSGWQ6IcsOW/fAJozNhQwkZAGirBoBGUhB1/DFpW+q8e23334jS27K56HGgMBqVgaDocKCbiYGCz766GP3bLXVVskWgTCIu8QNgRCXkBZhWgWOF9qgwU0cWIJ7CikYYXnirBsFEl6weINLIWy1+eabNxXr+OG5c+fM4ENJNwiSfoPBYCiPQKjhrly5ctWUKVNGPvjgg8waYEEhVhiMlbOXlVmVvWkMFTKVw0LGCZCGXYQGw//bQohlSFdBPHYguNmihJduEHCuZbVq1dq88847XRctWjRfvxyDwWCoYMjPX144evTogTcKRO41EjKYurQMATUChEHuEk8YK3aw8K9Cg0GnGe4tpMCEaYaZCtQG08cRGwRCzjU76KCD2n7++edv5OXl5fLh0CJgrQIGg6G8IrQGgNy83MX9+v3waYcOHa4QeUeLQFsvD0urRSCmjxMjgFaBY4Vsa28wxKC/iMUmaB2IC2Zws0UJLxgDHCcNg6ZHHXVUuz59+ny0fPkyXbaNj0lgBoHBYChXQHB51+Xk5Mz++OOPX0K+iZzDEGCvlmKyNekvIcay1vvPrVSpErMHdhQaDMVA68A+vqDQfFRihVPCDgWTY/UL+UAaN2zYsMOAAQO+EoMgTDkEZhAYDIYyDy+v1BBYsWLFyqlTp455rnPnh3fccUdmC7D8O3sNxMofN/hLkEHe4hKftv4KWXTOYMgImotWax0oIaYX0GAQNG3QoMH5ffv2/WjJkiWLEx+YGQQGg6HMAiHlvW7JkrzFUqn58uqrr76+cuXK1MB16iCyT9yNZgiIS0UPHi6sLDQYMiLMLGDaH9ZjscJbAlyjQVCvXr2zPv3009cXLlw4j49LzQEzCAwGw0ZEkEP88aeKGQErVqxYNWPGjEnvvfde90S3APsMbExDgPiQq6SHaYQnCbcRGgx/iL8LWZKSwSUUnrjwJgpZNpkssMUMgv333/+0nj17dp03b940/60ZDAZDmQSDn3/55Zfe7Dq43Xbb0RpAtwAVq2LKP7glzLiChZ9z4scQIE02TsCw1qgqZCEMCo8WJF+YStMgwGXZ4jYvvPDCo9OnTx+fMMANBoOhxEGtX1Bs2WnPWBgVFBQUTpkyZfTbb7/93CmnnILMpDVAFxJKyrTg9zKvJFnMEMAVUrljKiOzxmyVQcNagzmnBwlZojIeTBjcEmImgwC2xMq+6667bhs5cuSAZcuWLvPfIB/qH36kBoPBkC0gWwRxVyXLqM+ZM2da7969e1511VVXi5xqIfKKFgFaNoP8Upnm5VtpGAIwxKtxCunyRa6yngD70RgM6wSmGp4oxKKMC3JwS4jFPhji9edasaNXmzZtLvj888/fnD9/vu52CFaxeQz6P1DABxudNBgMhnWDlx/FyBLCAatWrUwtWLBg/qBBv3xzzz333Fa9evU2IqPYcZCV/NLlZDGZVtKUuIgvNgTEpTJHpe4IIUvPGwzrBfa1pmlJDYJEActYELPEYnH4eHH1g9tzzz3bPvXUU/eNHTt20LJlS5f77zO22j3NEDAYDBsM5In30hKwasGCnHmDBw/+7vHHH7+/Xr16KFr64GkRCFMG05VxunwrMabFHQYMIrvrC23fAcMGgaknhwppZsK61MId3BJkMABCfFrIORY2r1y5crMzzjjj0k8++eS1GdOnTyws1DWKFBgCfMCeZhQYDIa1Ria5wQwBugN++umnrzECjjnmmLMrVaoUGwFClVtePgVlrC7nS4PEl4g7febAdkKDYYOBRcm+BcnuguBmLJhZZLKAJz80WiuaVqtW7dQ7brvt5j59+nwyZ87s6StXrfSf72pGQZJmIBgMhhhrkgv5+fkFU6dOHde3b98P77///rvq1q2LEUB3AIYAMkjlU2CanMokz0qEafEHQ6CDsKGwitBgyBrC7IJgEISCp24olCXEEE/S8tYpj0IW8mh68MEHn/HAAw/c0a9fv09nz5o1pbCgoNh6BHzogmIGQYC/xGAwbELwn/9q3/+KlStSOTk5c0aOHNn/ww8/fI1NhWrVqoWswQCAxdYMgP64tORhMSbiDIYA5zAEmNGA3LaZA4asopJwfylw2gclbtw6AMWfsaBmkasZBIlj5vHykTY59NBDT2dAT+/evd/Bol+6tGjmQYCXARkNgwB/qcFgqCDwn7bCn4rB1MCFCxbkjB8//leRHe8++uij9zZt2vT8qlWrMiAQpaotAV4OqQIWJo0AlUnIo9KkjzOkIRgC5wlJ765CMwQMJYK/CY8UJscPJD+KjAU2iySu+OMLx558BNp1APepUaPtFVdccW2PHj2eH/bbsP7MPli+bFk82DDAy4akYZBkQKbfjEbjxmFA0v+H8J97jBUrClNLlizJnTdv3qyxY8YM6tWr1zvPPPXUAx06dLjEzwzAAICMCQi7C8bKN+kGP9eUJhPxkoZk1wBTG3cTsteMwVBi2FrIdEMGplD44o/CF8yMBTeLDHEk44w/SiEfCS0FfMSNt9pqqxbNmze/4O5One786KOPXh0xYsSAWbNmTM7NXbwwOVUoHV6GGAyGcgL/6WZEYWHhykWLFi2cPXvWTBYHGjRo0NdvvfXWc3ffffedp5122iU1atRAmQYDQLsChEGeZJQ14k+XTaXCDOkJhgAtAhgCtAiYIWAoFbCUJR+Nrk4IQyH1BTRjIS4BFotX3PTuA45p5qO1oDFNfs2aNet44403/u/ll19+qm/fvh+PGTPmp4kTJ46cPXu2GAi5uQVpYw0MBkP5QX5+/gr5jBfPmjVz+tSpU8ZOmjRxuFQA+vXp8917r7zyypN33HHHnVL7v+rYY489Z4stttAKg5cPjD3SAYEiO1CsQenGrZ/Bj2zZWEykKci6ZIsAz7KL0LoGDKUGChvrD/ABpS9IpIo5FN5SIvHHBkA49tRrxKW1QAcbChuxi9jBBx98Jq0Ggqvuv//+26Wm8MwXn3/+Rr9+/T4eNmzYdwwgEkHyq3DokCFDRhmNxrLB4cOG/Sbf5y/CH4YPH/7DwIEDv/n++2/f/eyzz1578803n33kkYfuvvbaq68/55z2lzdo0OC8mjVrnu53DkRhQvwMiE52Aaj88oyNAFyuSbgbhWnpIi346a7FEGgkZLCgwVDqYEDhvkIs07B/AYUz/qDwlxaT8Yk/WM3Bmtd0Cdv530kzLQZBODD9pjFrF2y77bat99577zOYR9yoUaPzW7VocUnbNm0ubdGixZVGo3HjslWrVle2bNnyqjYtW14uxxc2bNiww3HHHdehVq1a7atUqdJm++23b+2VPsoxkG+cpn++eZQ/skJlAX45F8uKpN//rtck/KVOnybSENOn72xhWEeA1lprETBsNLAgEWtdU2AplEHxZvqgSo0Sr3683g0feUhP+KAQBpC0YhzQcoCwoOkQYaJdC8IgUBoYjcYyQwx4vku6K/lWUfZ8u7T+8R3T58+KgOGbRx4EGaHKVRjkQrq8CjIilikbkz5dsezy6aVFloHcxwptQSFDmQBrXdeSQhr6reKCi98fl4UPK3xEQQAEIRA+sPia5D3hnDB5n9Fo3DgM32P6t1qM8ptWBvw1yXvicDjvyT1Jf5lgSLP4k2nnPBUvugeY2bWV0GAoM/j7X//619rihv6rYgYBLoW7LFDSE39knkE4JKm/yfXJD9FoNJYxpn+j4i/2DXu/HstvSQWbUT6UFYZ0+rQGf5CvtGKyo+w/hAZDmcPfhRgEtBAkxxCU6Y9P0qb0/vgDFKYLFaPRWPaY6TtN/8bLvPJPMjyHP9ZnFJcNkTAE6MLcS2jbEBvKNDAIagkp0BTcYgaBP16t8JdVlrf0Go2bGuUbVWb6rbwxyEgvd5T+mPEBGAOs77Kz0AYKGsoFMAhowmJQHgYBBT223EPBNxqNRqNS5WJCRuIy+JFuAR2YLTxcuK3QYChXYJYB0w5bSoHGIKDrgBaCYgWeY6PRaNyEmawkBUMA5U9LAIYAMyWQpQzUNhjKJWjKqiakMJ8rhbx9KOyJAq8GgtFoNG6CTFaMgkwMrQFUoJg2aOsHGCoEKMSsinWykJ0OIa0D5XYcgdFoNGaDXvYhA+lSxc/YAAwBVkZk7NWWQoOhQoG+rrrCs6TAn+c/BDUI/MegLueNRqOxAjJdvsWyD7koxBBALtIawEZDfxUaDBUSzIllYCGrg2H90icWugrCR2FGgdForGgMsi15jOyjKwAjALKC4oHCLYQGQ4UH+xkwjoDlRMNHEDeXZfhojEajsTxTFX/w+2P8LCWM/GOnRFpNdxIiHw2GTQaMI2AtbabKhE2OaCUIH026MWDGgdFoLE9Mr9RoC6iQik+YJcA1JwipHP1NaDBssmD6IStpseEIHwhWsk5BhOFDSvqNRqOxDDNpBOAmjQDGBdAacGalSpXYYGk/oQ0QNBg8aCVgcOGhQnYZ42PRD0YYtxLg98fpH5/RaDRudIp8CoZAbAT482FwIBUdjADGBWwjtOmCBkMGMHJ2N+ExQroO+Hj4iIoZBYH+XLGP0Wg0GkuDIn/SuwGgGgL+N47j1s5KlSqx1gpTBeketXEBBsNa4J/CfYQnCbGkaSWIjQKY+PjMKDAajaVGkTeh5h8fB7nk/UFmYQRwzEBpZlD9R2hTBQ2GdQTNZ1sLDxDyMaUbBfoBhg/Sf5RmFBiNxqzTy5b0lslgBOByHLoCkFNsL8yGQowJoDvAWgIMhg3EX4R8TMEo4OPjg2NZYz6+8EFmNAT8+fSmPKPRaMzINckSmJA3QaYgg0JXAL+xTgBTBPcUMjDQxgQYDFkGljVGQQ3hifIRMqYACxy2k2NaDjIaBv7YDAKj0fiHTJcd4ZynyhBxkTVhamBoBaBLk0GBOwjZsdWMAIOhhEFLAWMKdhceKWRQTuhC4ANVo0A+2qRhUMwQ4Hd/TbGP3mg0bjr0siH9fCw3vIwIBgCyJbQAIGuojNBSyQwoBj3TCmBdAQbDRgCWNxY4lvj+wvpCljgOzXZ8sNqN4D/wNRoHa0m9P8N5o9G4kei/6/U17JOKP8iFICtC7T9ZyWDa8ynCw4R7CP8l3ExorQAGQxkBFjmtBeyMyNgCDIMWQj5qPmaa87DowxiDJGNhkIHrK2SMRuPG4Z9904GxDJB7UPShdRE5EWQFtX9aHo8WIld2EW4lZEaAGQAGQxkHhgFNduz/va+QrgRWN2Ttb2oSyQ8+tB4w5mBdhYnRaCzbLGbMy3Eg33wxOeB/R0awIBDKv6aQJYLDGADkihkABkM5BR8wHzKLfLAdKIMPMQ5o6mPUL81+KP/QehBaEDiGNA8iOJJMChWj0bjxSa0++Y2G5v2g8MO3zQwkrkfptxSi+I8X1hFScUBGbC+kldGa/w2GCgo+7GAcsH4BFj/NfggB+gDpWmDDkMaVKlVqJS4Cg9oFwgPhEmoRSeFiNBo3LoPxrv36ouz5Zvl2+YYx+GkVROHXEzLYj3n/1PhpOaSSQCsi+6NYzd9g2MSBEGC3MGoDGAkICYRFdSFThVg+lJoDLQpHCZlDTDOi0Wjc+OS7PEKIQX+IkG+W1Uv5hjH2qemj8KkEmNI3GAzrBKYv0kzIQCEECMYCwgRubjQaywzDd8k3CvlmUfh8w6b0DQaDwWAwGAwGg8FgMBgMBoPBYDAYDAaDwWAwGAwGg8FgMBgMBoPBYDAYDAaDwWAwGAwGg8FgMBgMBoPBYDAYDAaDwWAwGAwGg8FgMBgMBoPBYDAYDAaDwWAwGAwGg8FgMBgMBoPBYDAYDAaDwWAwGAwGg8FgMBgMBoPBYDAYDAaDwWAwGAwGg8FgMBgMBoPBYDAYDAaDwWAwGAwGg8FgMBgMBoPBYDAYDAaDwWAwGAwGg8FgMBgMBoPBYDAYDAaDwWAwGAwGg8FgMBgMBoPBYDAYDAaDwWAwGAwGg8FgMBgMBoPBYDAYDAaDwWAwGAwGg8FgMBgMBoPBYDAYDAaDwWAwGAwGg8FgMBgMBoPBYDAYDAaDwWAwGAwGg8FgMBgMBoPBYDAYDAaDwWAwGAwGg8FgMBgMBoPBYDAYDAaDwWAwGAwGg8FgMBgMBoPBYDAYDAaDwWAwGAwGg8FgMBgMBoPBYDAYDAaDwWAwGAwGg8FgMBgMBoPBYDAYDAaDwWAwGAwGg8FgMBgMBoPBYDAYDAaDwWAwGAwGg8FgMBgMBoPBYDAYDAaDwWAwGAwGg8FgMBjKGP7f//v/7d5rRcJS87kAAAAASUVORK5CYII=;" vertex="1" parent="1">
          <mxGeometry x="660" y="700" width="166.79" height="125.01" as="geometry" />
        </mxCell>
        <mxCell id="GSt7BdVdMXuXN4_01nC7-26" value="" style="endArrow=classic;html=1;rounded=0;sketch=1;hachureGap=4;jiggle=2;curveFitting=1;fontFamily=Architects Daughter;fontSource=https%3A%2F%2Ffonts.googleapis.com%2Fcss%3Ffamily%3DArchitects%2BDaughter;strokeWidth=3;exitX=0.018;exitY=0.576;exitDx=0;exitDy=0;exitPerimeter=0;" edge="1" parent="1" source="GSt7BdVdMXuXN4_01nC7-25">
          <mxGeometry width="50" height="50" relative="1" as="geometry">
            <mxPoint x="550" y="775" as="sourcePoint" />
            <mxPoint x="470" y="773" as="targetPoint" />
          </mxGeometry>
        </mxCell>
        <mxCell id="GSt7BdVdMXuXN4_01nC7-32" value="" style="sketch=0;outlineConnect=0;fontColor=#232F3E;gradientColor=none;fillColor=#7AA116;strokeColor=none;dashed=0;verticalLabelPosition=bottom;verticalAlign=top;align=center;html=1;fontSize=12;fontStyle=0;aspect=fixed;pointerEvents=1;shape=mxgraph.aws4.mqtt_protocol;hachureGap=4;jiggle=2;curveFitting=1;fontFamily=Architects Daughter;fontSource=https%3A%2F%2Ffonts.googleapis.com%2Fcss%3Ffamily%3DArchitects%2BDaughter;" vertex="1" parent="1">
          <mxGeometry x="530" y="780" width="69.3" height="69.3" as="geometry" />
        </mxCell>
        <mxCell id="GSt7BdVdMXuXN4_01nC7-33" value="" style="sketch=0;outlineConnect=0;fontColor=#232F3E;gradientColor=none;fillColor=#7AA116;strokeColor=none;dashed=0;verticalLabelPosition=bottom;verticalAlign=top;align=center;html=1;fontSize=12;fontStyle=0;aspect=fixed;pointerEvents=1;shape=mxgraph.aws4.mqtt_protocol;hachureGap=4;jiggle=2;curveFitting=1;fontFamily=Architects Daughter;fontSource=https%3A%2F%2Ffonts.googleapis.com%2Fcss%3Ffamily%3DArchitects%2BDaughter;" vertex="1" parent="1">
          <mxGeometry x="670" y="649" width="59.3" height="59.3" as="geometry" />
        </mxCell>
        <mxCell id="GSt7BdVdMXuXN4_01nC7-35" value="" style="verticalLabelPosition=bottom;html=1;verticalAlign=top;align=center;strokeColor=none;fillColor=#00BEF2;shape=mxgraph.azure.unidentified_code_object;sketch=1;hachureGap=4;jiggle=2;curveFitting=1;fontFamily=Architects Daughter;fontSource=https%3A%2F%2Ffonts.googleapis.com%2Fcss%3Ffamily%3DArchitects%2BDaughter;" vertex="1" parent="1">
          <mxGeometry x="276.47" y="140" width="180" height="120" as="geometry" />
        </mxCell>
        <mxCell id="GSt7BdVdMXuXN4_01nC7-37" value="" style="shape=mxgraph.arrows2.wedgeArrowDashed2;html=1;bendable=0;startWidth=50;stepSize=15;rounded=0;sketch=1;hachureGap=4;jiggle=2;curveFitting=1;fontFamily=Architects Daughter;fontSource=https%3A%2F%2Ffonts.googleapis.com%2Fcss%3Ffamily%3DArchitects%2BDaughter;" edge="1" parent="1">
          <mxGeometry width="100" height="100" relative="1" as="geometry">
            <mxPoint x="280" y="255.39999999999998" as="sourcePoint" />
            <mxPoint x="241.09775287707862" y="357.3588488855247" as="targetPoint" />
            <Array as="points">
              <mxPoint x="369.59000000000003" y="240" />
              <mxPoint x="-20" y="285.4" />
            </Array>
          </mxGeometry>
        </mxCell>
        <mxCell id="GSt7BdVdMXuXN4_01nC7-38" value="" style="shape=mxgraph.arrows2.wedgeArrowDashed2;html=1;bendable=0;startWidth=50;stepSize=15;rounded=0;sketch=1;hachureGap=4;jiggle=2;curveFitting=1;fontFamily=Architects Daughter;fontSource=https%3A%2F%2Ffonts.googleapis.com%2Fcss%3Ffamily%3DArchitects%2BDaughter;" edge="1" parent="1">
          <mxGeometry width="100" height="100" relative="1" as="geometry">
            <mxPoint x="480.41" y="264" as="sourcePoint" />
            <mxPoint x="489.41" y="350" as="targetPoint" />
            <Array as="points">
              <mxPoint x="570" y="248.60000000000002" />
            </Array>
          </mxGeometry>
        </mxCell>
      </root>
    </mxGraphModel>
  </diagram>
</mxfile>
